<?xml version="1.0" standalone="no"?>
<!DOCTYPE svg PUBLIC "-//W3C//DTD SVG 1.1//EN" "http://www.w3.org/Graphics/SVG/1.1/DTD/svg11.dtd" >
<svg>
<metadata>
Created by FontForge 20090914 at Tue Jan 13 23:31:42 2015
 By www-data
</metadata>
<defs>
<font id="wf" horiz-adv-x="542" >
  <font-face 
    font-family="DIN Next LT Pro"
    font-weight="400"
    font-stretch="normal"
    units-per-em="1000"
    panose-1="2 11 5 3 2 2 3 5 2 3"
    ascent="781"
    descent="-219"
    x-height="479"
    cap-height="680"
    bbox="-6.99902 -191 836.003 751.001"
    underline-thickness="0"
    underline-position="0"
    unicode-range="U+0020-U+2212"
  />
<missing-glyph horiz-adv-x="364" 
d="M33 0v666h265v-666h-265zM66 33h199v600h-199v-600z" />
    <glyph glyph-name=".notdef" horiz-adv-x="364" 
d="M33 0v666h265v-666h-265zM66 33h199v600h-199v-600z" />
    <glyph glyph-name="space" unicode=" " horiz-adv-x="240" 
 />
    <glyph glyph-name="exclam" unicode="!" horiz-adv-x="288" 
d="M123 184c-6.66699 0 -10 3.33301 -10 10l-16 476c0 6.66699 3.33301 10 10 10h74c6.66699 0 10 -3.33301 10 -10l-16 -476c0 -6.66699 -3.33301 -10 -10 -10h-42zM96 96c0 6.66699 3.33301 10 10 10h76c6.66699 0 10 -3.33301 10 -10v-86
c0 -6.66699 -3.33301 -10 -10 -10h-76c-6.66699 -0 -10 3.33301 -10 10v86z" />
    <glyph glyph-name="quotedbl" unicode="&#x22;" horiz-adv-x="329" 
d="M208 503c-6.66699 0 -10 3.33301 -10 10v157c0 6.66699 3.33301 10 10 10h44c6.66699 0 10 -3.33301 10 -10v-157c0 -6.66699 -3.33301 -10 -10 -10h-44zM77 503c-6.66699 0 -10 3.33301 -10 10v157c0 6.66699 3.33301 10 10 10h44c6.66699 0 10 -3.33301 10 -10v-157
c0 -6.66699 -3.33301 -10 -10 -10h-44z" />
    <glyph glyph-name="numbersign" unicode="#" horiz-adv-x="517" 
d="M107 214h-73c-6.66699 0 -10 3.33301 -10 10v43c0 6.66699 3.33301 10 10 10h81l19 140h-75c-6.66699 0 -10 3.33301 -10 10v42c0 6.66699 3.33301 10 10 10h84l26 191c1.33301 6.66699 5 10 11 10h45c7.33301 0 10.333 -3.33301 9 -10l-26 -191h133l26 191
c1.33301 6.66699 5 10 11 10h45c7.33301 0 10.333 -3.33301 9 -10l-26 -191h77c6.66699 0 10 -3.33301 10 -10v-42c0 -6.66699 -3.33301 -10 -10 -10h-86l-19 -140h79c6.66699 0 10 -3.33301 10 -10v-43c0 -6.66699 -3.33301 -10 -10 -10h-87l-28 -204
c-1.33301 -6.66699 -5 -10 -11 -10h-45c-7.33301 -0 -10.333 3.33301 -9 10l28 204h-133l-28 -204c-1.33301 -6.66699 -5 -10 -11 -10h-45c-7.33301 -0 -10.333 3.33301 -9 10zM313 277l19 140h-133l-19 -140h133z" />
    <glyph glyph-name="dollar" unicode="$" 
d="M61 56c-2 1.33301 -3.00098 3.33496 -3.00098 6.00195s0.666992 5.33398 2 8.00098l37 50c4 4.66699 8.66699 5 14 1c17.333 -12.667 38 -24.334 62 -35.001s50.333 -17 79 -19v240c-60.667 11.333 -105.667 32.666 -135 63.999s-44.333 72 -45 122
c0 28 4.33301 53.333 13 76s21 42.667 37 60s35 31 57 41s46.333 16.667 73 20v51c0 6.66699 3.33301 10 10 10h29c6.66699 0 10 -3.33301 10 -10v-51c28.667 -2.66699 55.667 -8.33398 81 -17.001s48 -19.667 68 -33c4.66699 -4 5.33398 -8.66699 2.00098 -14l-32 -49
c-4 -5.33301 -8.66699 -6.33301 -14 -3c-35.333 20.667 -70.333 33 -105 37v-230c61.333 -10.667 107 -31.667 137 -63s45 -72.333 45 -123c0 -56 -16 -102 -48 -138s-76.667 -57.667 -134 -65v-53c0 -6.66699 -3.33301 -10 -10 -10h-29c-6.66699 0 -10 3.33301 -10 10v50
c-38 1.33301 -73 8 -105 20s-60.667 27.667 -86 47zM251.999 611.002c-30 -4 -53.667 -15.668 -71 -35.001s-26.333 -44.666 -27 -75.999c0 -28 7 -51 21 -69s39.667 -31.667 77 -41v221zM300.999 70.001c31.333 5.33301 55.667 18 73 38s26.333 47.333 27 82
c0 27.333 -7.33301 50 -22 68s-40.667 31.333 -78 40v-228z" />
    <glyph glyph-name="percent" unicode="%" horiz-adv-x="778" 
d="M552 681c4 6.66699 9.33203 10 15.999 10h48c3.33301 0 5.33301 -1 6 -3s0.333984 -4.33301 -0.999023 -7l-395 -682c-4 -6.66699 -9 -10 -15 -10h-48c-3.33301 0 -5.33301 1 -6 3s-0.666992 4.33301 0 7zM197.999 330c-28.667 0 -53 7 -73 21s-34 32.667 -42 56
c-1.33301 4.66699 -2.33301 9.33398 -3 14.001s-1.66699 10.334 -3 17.001s-1.66602 15.667 -0.999023 27s0.333984 26 -0.999023 44v43c0 10.667 0.666992 19.667 2 27s2 13.333 2 18s1.33301 9.33398 4 14.001c8 23.333 22 42 42 56s44.333 21 73 21s53 -7 73 -21
s34 -32.667 42 -56c1.33301 -4.66699 2.33301 -9.33398 3 -14.001s1.66699 -10.334 3 -17.001s1.66602 -15.667 0.999023 -27s-0.333984 -26 0.999023 -44v-43c0 -10.667 -0.666992 -19.667 -2 -27s-2 -13.333 -2 -18s-1.33301 -9.33398 -4 -14.001
c-8 -23.333 -22 -42 -42 -56s-44.333 -21 -73 -21zM197.999 388c13.333 0 24.666 3 33.999 9s16 14.667 20 26c0.666992 2.66699 1.33398 5.66699 2.00098 9s1 8 1 14s0.333008 14.333 1 25s1 23.334 1 38.001v38c0 10 -0.333008 18 -1 24s-1.33398 11 -2.00098 15
s-1.33398 7 -2.00098 9c-4 11.333 -10.667 20 -20 26s-20.666 9 -33.999 9s-24.666 -3 -33.999 -9s-16 -14.667 -20 -26c-0.666992 -2.66699 -1.33398 -5.66699 -2.00098 -9s-1 -8 -1 -14s-0.333008 -14.333 -1 -25s-1 -23.334 -1 -38.001v-38c0 -10 0.333008 -18 1 -24
s1.33398 -11 2.00098 -15s1.33398 -7 2.00098 -9c4 -11.333 10.667 -20 20 -26s20.666 -9 33.999 -9zM464.999 68c-1.33301 4.66699 -2.33301 9.33398 -3 14.001s-1.66699 10.334 -3 17.001s-1.66602 15.667 -0.999023 27s0.333984 26 -0.999023 44v43
c0 10.667 0.666992 19.667 2 27s2 13.333 2 18s1.33301 9.33398 4 14.001c8 23.333 22 42 42 56s44.333 21 73 21s53 -7 73 -21s34 -32.667 42 -56c1.33301 -4.66699 2.33301 -9.33398 3 -14.001s1.66699 -10.334 3 -17.001s1.66602 -15.667 0.999023 -27
s-0.333984 -26 0.999023 -44v-43c0 -10.667 -0.666992 -19.667 -2 -27s-2 -13.333 -2 -18s-1.33301 -9.33398 -4 -14.001c-8 -23.333 -22 -42 -42 -56s-44.333 -21 -73 -21s-53 7 -73 21s-34 32.667 -42 56zM525.999 84c4 -11.333 10.667 -20 20 -26s20.666 -9 33.999 -9
s24.666 3 33.999 9s16 14.667 20 26c0.666992 2.66699 1.33398 5.66699 2.00098 9s1 8 1 14s0.333008 14.333 1 25s1 23.334 1 38.001v38c0 10 -0.333008 18 -1 24s-1.33398 11 -2.00098 15s-1.33398 7 -2.00098 9c-4 11.333 -10.667 20 -20 26s-20.666 9 -33.999 9
s-24.666 -3 -33.999 -9s-16 -14.667 -20 -26c-0.666992 -2.66699 -1.33398 -5.66699 -2.00098 -9s-1 -8 -1 -14s-0.333008 -14.333 -1 -25s-1 -23.334 -1 -38.001v-38c0 -10 0.333008 -18 1 -24s1.33398 -11 2.00098 -15s1.33398 -7 2.00098 -9z" />
    <glyph glyph-name="ampersand" unicode="&#x26;" horiz-adv-x="633" 
d="M70 167c0 37.333 10.6689 72.665 32.002 105.998s55.666 69 102.999 107c-15.333 19.333 -28.333 36.333 -39 51s-19.334 28.667 -26.001 42s-11.667 25.333 -15 36s-5 22.667 -5 36c0 20.667 3.66699 40 11 58s18.333 33.333 33 46s31 23 49 31s39 11.667 63 11
c24 0 45.333 -3.66699 64 -11s35 -18 49 -32s24.667 -29.333 32 -46s11 -35.667 11 -57c0 -15.333 -2 -29.666 -6 -42.999s-11 -26.666 -21 -39.999s-22.333 -27.666 -37 -42.999s-33.667 -32 -57 -50l129 -166l69 85c4 5.33301 8.66699 6 14 2l39 -34
c5.33301 -4 6 -8.66699 2 -14l-78 -99l33 -43c6.66699 -8 13 -14 19 -18s13 -6 21 -6h15c6.66699 0 10 -3.33301 10 -10v-56c0 -6.66699 -3.33301 -10 -10 -10h-27c-20 0 -36 3 -48 9s-25 18.667 -39 38l-27 35c-30 -32 -59 -55.333 -87 -70s-60.333 -22.334 -97 -23.001
c-28.667 0 -54 4.33301 -76 13s-40.667 21 -56 37s-27 34.667 -35 56s-12 45.333 -12 72zM267.002 428.999c18.667 14.667 33.668 27.333 45.001 38s20.333 20.667 27 30s10.667 18 12 26s2.33301 16 3 24c0 20.667 -7 38 -21 52s-33 21 -57 21s-42.333 -7 -55 -21
s-19.334 -31.667 -20.001 -53c0 -7.33301 1 -14.333 3 -21s5.33301 -14.667 10 -24s11.667 -19.333 21 -30s20 -24.667 32 -42zM149.003 171.998c0 -34 9 -60.667 27 -80s44.333 -29 79 -29c23.333 0 45 6 65 18s42.667 32 68 60l-138 180c-36 -28 -61.667 -53.333 -77 -76
s-23.333 -47 -24 -73z" />
    <glyph glyph-name="quotesingle" unicode="'" horiz-adv-x="198" 
d="M77 503c-6.66699 0 -10 3.33301 -10 10v157c0 6.66699 3.33301 10 10 10h44c6.66699 0 10 -3.33301 10 -10v-157c0 -6.66699 -3.33301 -10 -10 -10h-44z" />
    <glyph glyph-name="parenleft" unicode="(" horiz-adv-x="285" 
d="M182 -74c-40 60.667 -69.667 125.667 -89 195s-29.333 138.333 -30 207c0 68.667 9.66699 137.667 29 207s49.333 134.333 90 195c4.66699 6.66699 10 10 16 10h35c7.33301 0 9.33301 -3.33301 6 -10c-30 -60.667 -53.333 -125.667 -70 -195s-25 -138.333 -25 -207
s8.33301 -138 25 -208s40 -134.667 70 -194c3.33301 -6.66699 1.33301 -10 -6 -10h-35c-6 0 -11.333 3.33301 -16 10z" />
    <glyph glyph-name="parenright" unicode=")" horiz-adv-x="285" 
d="M46 -74c30 59.333 53.333 124 70 194s25 139.333 25 208s-8.33301 137.667 -25 207s-40 134.333 -70 195c-3.33301 6.66699 -1.33301 10 6 10h35c6 0 11.333 -3.33301 16 -10c40 -60.667 69.667 -125.667 89 -195s29.333 -138.333 30 -207
c0 -68.667 -9.66699 -137.667 -29 -207s-49.333 -134.333 -90 -195c-4.66699 -6.66699 -10 -10 -16 -10h-35c-7.33301 0 -9.33301 3.33301 -6 10z" />
    <glyph glyph-name="asterisk" unicode="*" horiz-adv-x="342" 
d="M156 396c-6.66699 0 -10 3.33301 -10 10v89l-76 -45c-2.66699 -2 -5.33398 -2.66699 -8.00098 -2s-4.66699 2.33398 -6 5.00098l-15 28c-4 6 -2.66699 10.667 4 14l76 42l-76 44c-6.66699 3.33301 -8 8 -4 14l15 28c1.33301 2.66699 3.33301 4.33398 6 5.00098
s5.33398 0 8.00098 -2l76 -46v90c0 6.66699 3.33301 10 10 10h30c6.66699 0 10 -3.33301 10 -10l-1 -90l77 46c2.66699 2 5.33398 2.66699 8.00098 2s4.66699 -2.33398 6 -5.00098l15 -28c4 -6 2.66699 -10.667 -4 -14l-76 -44l76 -42c6.66699 -3.33301 8 -8 4 -14l-15 -28
c-1.33301 -2.66699 -3.33301 -4.33398 -6 -5.00098s-5.33398 0 -8.00098 2l-77 45l1 -89c0 -6.66699 -3.33301 -10 -10 -10h-30z" />
    <glyph glyph-name="plus" unicode="+" 
d="M233 233c0 4 -2 6 -6 6h-156c-6.66699 0 -10 3.33301 -10 10v54c0 6.66699 3.33301 10 10 10h156c4 0 6 2 6 6v158c0 6.66699 3.33301 10 10 10h56c6.66699 0 10 -3.33301 10 -10v-158c0 -4 2 -6 6 -6h156c6.66699 0 10 -3.33301 10 -10v-54
c0 -6.66699 -3.33301 -10 -10 -10h-156c-4 0 -6 -2 -6 -6v-158c0 -6.66699 -3.33301 -10 -10 -10h-56c-6.66699 0 -10 3.33301 -10 10v158z" />
    <glyph glyph-name="comma" unicode="," horiz-adv-x="230" 
d="M70 96c0 6.66699 3.33398 10 10.001 10h70c6.66699 0 10 -3.33301 10 -10v-93c0 -5.33301 -0.333008 -9.33301 -1 -12s-2.33398 -6 -5.00098 -10l-62 -82c-4 -4.66699 -8.33301 -7 -13 -7c-6 0 -9 3 -9 9v195z" />
    <glyph glyph-name="hyphen" unicode="-" horiz-adv-x="380" 
d="M57 227c-6.66699 0 -10 3.33301 -10 10v58c0 6.66699 3.33301 10 10 10h266c6.66699 0 10 -3.33301 10 -10v-58c0 -6.66699 -3.33301 -10 -10 -10h-266z" />
    <glyph glyph-name="period" unicode="." horiz-adv-x="236" 
d="M70 96c0 6.66699 3.33301 10 10 10h76c6.66699 0 10 -3.33301 10 -10v-86c0 -6.66699 -3.33301 -10 -10 -10h-76c-6.66699 -0 -10 3.33301 -10 10v86z" />
    <glyph glyph-name="slash" unicode="/" horiz-adv-x="417" 
d="M282 681c2 6.66699 6.33301 10 13 10h54c6.66699 0 9 -3.33301 7 -10l-222 -682c-2 -6.66699 -6.33301 -10 -13 -10h-53c-6.66699 0 -9 3.33301 -7 10z" />
    <glyph glyph-name="zero" unicode="0" 
d="M85 118c-2 6.66699 -3.66699 14.334 -5 23.001s-3 21.334 -5 38.001s-3.33301 37.334 -4 62.001s-1 57.667 -1 99c0 40 0.333008 72.667 1 98s1.66699 46.333 3 63s3 29 5 37l6 24c13.333 42 35.666 74 66.999 96s71 33 119 33c47.333 0 86.666 -11 117.999 -33
s54 -54 68 -96c2 -6.66699 3.66699 -14.334 5 -23.001s3 -21.334 5 -38.001s3.33301 -37.334 4 -62.001s1 -57.667 1 -99c0 -40 -0.333008 -72.667 -1 -98s-1.66699 -46.333 -3 -63s-3 -29 -5 -37l-6 -24c-13.333 -42 -35.666 -74 -66.999 -96s-71 -33 -119 -33
c-47.333 0 -86.666 11 -117.999 33s-54 54 -68 96zM168 135c8 -22.667 20.667 -39.667 38 -51s39 -17 65 -17c25.333 0 46.666 5.66699 63.999 17s30.333 28.333 39 51c2 5.33301 3.66699 11.666 5 18.999s2.33301 18.333 3 33s1.33398 34 2.00098 58s1 55.667 1 95v94
c0 24 -0.666992 43.667 -2 59s-2.66602 26.333 -3.99902 33s-3 13 -5 19c-8 22.667 -20.667 39.667 -38 51s-39 17 -65 17c-25.333 0 -46.666 -5.66699 -63.999 -17s-30.333 -28.333 -39 -51c-2 -5.33301 -3.66699 -11.666 -5 -18.999s-2.33301 -18.333 -3 -33
s-1.33398 -34 -2.00098 -58s-1 -55.667 -1 -95v-94c0 -24 0.666992 -43.667 2 -59s2.66602 -26.333 3.99902 -33s3 -13 5 -19z" />
    <glyph glyph-name="one" unicode="1" 
d="M244 574h-2l-113 -79c-7.33301 -4.66699 -11 -2.66699 -11 6v74c0 5.33301 2.33301 10 7 14l117 85c4.66699 4 10 6 16 6h60c6.66699 0 10 -3.33301 10 -10v-660c0 -6.66699 -3.33301 -10 -10 -10h-64c-6.66699 -0 -10 3.33301 -10 10v564z" />
    <glyph glyph-name="two" unicode="2" 
d="M79 62c0 5.33301 1.66406 10.002 4.99707 14.002l245 312c15.333 19.333 27 38.333 35 57s12.333 39 13 61c0 30.667 -9.33301 56 -28 76s-45 30.333 -79 31c-32.667 0 -58 -9 -76 -27s-29.667 -42.333 -35 -73c-1.33301 -6.66699 -5 -9.33398 -11 -8.00098l-61 13
c-6 2 -8.66699 6 -8 12c2 20 7.66699 39.667 17 59s22 36.333 38 51s35.333 27 58 37s49.334 14.667 80.001 14c30 0 56.667 -4.66699 80 -14s43.333 -22.333 60 -39s29.334 -36.334 38.001 -59.001s13 -47 13 -73c0 -30.667 -5.66699 -59 -17 -85s-27.666 -52 -48.999 -78
l-210 -264v-1h266c6.66699 0 10 -3.33301 10 -10v-58c0 -6.66699 -3.33301 -10 -10 -10h-364c-6.66699 -0 -10 3.33301 -10 10v52z" />
    <glyph glyph-name="three" unicode="3" 
d="M67 133c-0.666992 6 2.00293 9.99902 8.00293 11.999l61 15c6 2 10 -0.333008 12 -7c3.33301 -10.667 8 -21 14 -31s14 -19.333 24 -28s21.667 -15 35 -19s29.333 -6.66699 48 -8c36.667 0 65.334 11.333 86.001 34s31 51.334 31 86.001c0 38 -11.333 68.333 -34 91
s-53 34.334 -91 35.001h-30c-6.66699 0 -10 3.33301 -10 10v58c0 6.66699 3.33301 10 10 10h29c34 0 61.333 10.333 82 31s31 48.334 31 83.001c0 32 -9.66699 58 -29 78s-46 30 -80 30c-32 0 -56.333 -8 -73 -24s-28.334 -35.667 -35.001 -59c-2 -6 -6 -8.66699 -12 -8
l-60 15c-6.66699 1.33301 -9.33398 5.33301 -8.00098 12c3.33301 18.667 10 36.667 20 54s23.333 32.333 40 45s35.667 23 57 31s46 12 74 12c30 0 56.667 -4.33301 80 -13s43.666 -21.334 60.999 -38.001s30 -36.334 38 -59.001s12.333 -47.334 13 -74.001
c0 -34 -8 -63 -24 -87s-36 -43.667 -60 -59v-2c10.667 -4.66699 21.667 -11.667 33 -21s21.666 -21 30.999 -35s17 -30.667 23 -50s9.33301 -40.333 10 -63c0 -30 -5 -57.333 -15 -82s-24 -45.667 -42 -63s-39.333 -31 -64 -41s-52 -15 -82 -15
c-55.333 0 -100.333 13.333 -135 40s-57 61.334 -67 104.001z" />
    <glyph glyph-name="four" unicode="4" 
d="M63 119c-6.66699 0 -10 3.33301 -10 10v55c0 4 1 8 3 12l220 476c2.66699 5.33301 7.33398 8 14.001 8h67c7.33301 0 9.66602 -3 6.99902 -9l-217 -473v-2h180c4 0 6 2 6 6v178c0 6.66699 3.33301 10 10 10h64c6.66699 0 10 -3.33301 10 -10v-178c0 -4 2 -6 6 -6h62
c6.66699 0 10 -3.33301 10 -10v-57c0 -6.66699 -3.33301 -10 -10 -10h-62c-4 0 -6 -2 -6 -6v-103c0 -6.66699 -3.33301 -10 -10 -10h-64c-6.66699 -0 -10 3.33301 -10 10v103c0 4 -2 6 -6 6h-264z" />
    <glyph glyph-name="five" unicode="5" 
d="M86 131c-1.33301 6.66699 1.33105 10.6719 7.99805 12.0049l59 15c6.66699 0.666992 11 -2 13 -8c5.33301 -24 17 -43.667 35 -59s43.333 -23.333 76 -24c23.333 0 44 5.66699 62 17s30.667 28 38 50c3.33301 9.33301 5.66602 20.666 6.99902 33.999s2 30.333 2 51
c0 21.333 -0.666992 38.666 -2 51.999s-4 24.666 -8 33.999c-7.33301 23.333 -19.666 40 -36.999 50s-38 15.333 -62 16c-27.333 0 -49.333 -6.33301 -66 -19s-28 -27.334 -34 -44.001c-2.66699 -6.66699 -6.66699 -10 -12 -10h-59c-6.66699 0 -10 3.33301 -10 10v362
c0 6.66699 3.33301 10 10 10h342c6.66699 0 10 -3.33301 10 -10v-58c0 -6.66699 -3.33301 -10 -10 -10h-268c-4 0 -6 -2 -6 -6v-191h3c8 10.667 21.667 20.667 41 30s43 14 71 14c42 0 77.333 -9.33301 106 -28s49.334 -46.667 62.001 -84
c4.66699 -14.667 8.33398 -31 11.001 -49s4 -41 4 -69c0 -24 -1 -45 -3 -63s-5.66699 -33.667 -11 -47c-12.667 -38.667 -35 -68.334 -67 -89.001s-70 -31 -114 -31c-26 0 -50 3.33301 -72 10s-41.333 16.667 -58 30s-30 28.333 -40 45s-17 35.667 -21 57z" />
    <glyph glyph-name="six" unicode="6" 
d="M63 197c0 27.333 4.00098 53.9971 12.001 79.9971s19 51 33 75l173 321c2 4.66699 6.33301 7 13 7h68c7.33301 0 9.33301 -3.33301 6 -10l-152 -282l2 -2c6.66699 4.66699 16 8.33398 28 11.001s25.667 4.33398 41 5.00098c26.667 0 51.667 -4.66699 75 -14
s43.666 -22.666 60.999 -39.999s31.333 -38.666 42 -63.999s15.667 -53.333 15 -84c0 -33.333 -5.33301 -63 -16 -89s-25.334 -48 -44.001 -66s-40.667 -31.667 -66 -41s-53 -14.333 -83 -15c-30 0 -57.667 4.66699 -83 14s-47 23 -65 41s-32.667 39.667 -44 65
s-16.666 54.666 -15.999 87.999zM149.001 195.997c0 -38 11 -69 33 -93s51.667 -36 89 -36s67 12 89 36s33.333 55 34 93c0 38 -11 68.667 -33 92s-52 35.333 -90 36c-37.333 0 -67 -11.667 -89 -35s-33 -54.333 -33 -93z" />
    <glyph glyph-name="seven" unicode="7" 
d="M379 599l-0.000976562 2.99902h-207c-4 0 -6 -2 -6 -6v-85c0 -6.66699 -3.33301 -10 -10 -10h-60c-6.66699 0 -10 3.33301 -10 10v159c0 6.66699 3.33301 10 10 10h363c6.66699 0 10 -3.33301 10 -10v-62c0 -2.66699 -0.666992 -6 -2 -10l-234 -589
c-1.33301 -3.33301 -2.66602 -5.66602 -3.99902 -6.99902s-4.33301 -2 -9 -2h-67c-7.33301 0 -9.33301 3.66699 -6 11z" />
    <glyph glyph-name="eight" unicode="8" 
d="M61 189c0 40 8.99902 74.332 26.999 102.999s41 50.334 69 65.001v2c-21.333 12 -40 30.333 -56 55s-24 54.334 -24 89.001c0 25.333 4.33301 49.333 13 72s21.667 42.667 39 60s37.666 31 60.999 41s50.333 15 81 15s58 -5 82 -15s44.333 -23.333 61 -40
s29.334 -36.667 38.001 -60s13 -47.666 13 -72.999c0 -34 -8 -63.333 -24 -88s-34.667 -43.334 -56 -56.001v-2c27.333 -14.667 50 -36.334 68 -65.001s27.333 -63 28 -103c0 -30 -5 -57 -15 -81s-24.333 -45 -43 -63s-41 -31.667 -67 -41s-54.333 -14.333 -85 -15
c-31.333 0 -59.666 4.66699 -84.999 14s-47.333 23 -66 41s-33 39 -43 63s-15.333 51.333 -16 82zM270.999 395.999c33.333 0 59.667 10.667 79 32s29 47 29 77s-9.66699 55.333 -29 76s-45.666 31.334 -78.999 32.001c-32.667 0 -58.667 -10.333 -78 -31
s-29.333 -46.334 -30 -77.001c0 -30 9.66699 -55.667 29 -77s45.666 -32 78.999 -32zM147 192.999c0 -36.667 11.333 -66.666 34 -89.999s52.667 -35.333 90 -36c38 0 68 11.667 90 35s33.333 53.666 34 90.999c0 36 -11 65.667 -33 89s-52.333 35.333 -91 36
c-38 0 -68 -11.667 -90 -35s-33.333 -53.333 -34 -90z" />
    <glyph glyph-name="nine" unicode="9" 
d="M326 292l-2.00098 2.00293c-6.66699 -4.66699 -16 -8.33398 -28 -11.001s-25.667 -4.33398 -41 -5.00098c-26.667 0 -51.667 4.66699 -75 14s-43.666 22.666 -60.999 39.999s-31.333 38.666 -42 63.999s-15.667 53.333 -15 84c0 33.333 5.33301 63 16 89
s25.334 48 44.001 66s40.667 31.667 66 41s53 14.333 83 15c30 0 57.667 -4.66699 83 -14s47 -23 65 -41s32.667 -39.667 44 -65s16.666 -54.666 15.999 -87.999c0 -27.333 -4 -54 -12 -80s-19 -51 -33 -75l-173 -321c-2.66699 -4.66699 -7 -7 -13 -7h-68
c-7.33301 -0 -9.33301 3.33301 -6 10zM270.999 356.003c37.333 0 67 11.667 89 35s33 54.333 33 93c0 38 -11 69 -33 93s-51.667 36 -89 36s-67 -12 -89 -36s-33.333 -55 -34 -93c0 -38 11 -68.667 33 -92s52 -35.333 90 -36z" />
    <glyph glyph-name="colon" unicode=":" horiz-adv-x="244" 
d="M84 373c-6.66699 0 -10 3.33301 -10 10v86c0 6.66699 3.33301 10 10 10h76c6.66699 0 10 -3.33301 10 -10v-86c0 -6.66699 -3.33301 -10 -10 -10h-76zM74 96c0 6.66699 3.33301 10 10 10h76c6.66699 0 10 -3.33301 10 -10v-86c0 -6.66699 -3.33301 -10 -10 -10h-76
c-6.66699 -0 -10 3.33301 -10 10v86z" />
    <glyph glyph-name="semicolon" unicode=";" horiz-adv-x="244" 
d="M84 373c-6.66699 0 -10 3.33301 -10 10v86c0 6.66699 3.33301 10 10 10h76c6.66699 0 10 -3.33301 10 -10v-86c0 -6.66699 -3.33301 -10 -10 -10h-76zM77 96c0 6.66699 3.33398 10 10.001 10h70c6.66699 0 10 -3.33301 10 -10v-93c0 -5.33301 -0.333008 -9.33301 -1 -12
s-2.33398 -5.66699 -5.00098 -9l-62 -83c-4 -4.66699 -8.33301 -7 -13 -7c-6 0 -9 3 -9 9v195z" />
    <glyph glyph-name="less" unicode="&#x3c;" 
d="M71 239c-6.66699 2 -10 6.33203 -10 12.999v47c0 6.66699 3.33301 11.334 10 14.001l400 164c6.66699 2 10 0 10 -6v-62c0 -6 -3.33301 -10.333 -10 -13l-301 -119v-2l301 -119c6.66699 -2.66699 10 -7 10 -13v-62c0 -6 -3.33301 -8 -10 -6z" />
    <glyph glyph-name="equal" unicode="=" 
d="M71 339c-6.66699 0 -10 3.33301 -10 10v54c0 6.66699 3.33301 10 10 10h400c6.66699 0 10 -3.33301 10 -10v-54c0 -6.66699 -3.33301 -10 -10 -10h-400zM71 139c-6.66699 0 -10 3.33301 -10 10v54c0 6.66699 3.33301 10 10 10h400c6.66699 0 10 -3.33301 10 -10v-54
c0 -6.66699 -3.33301 -10 -10 -10h-400z" />
    <glyph glyph-name="greater" unicode="&#x3e;" 
d="M61 143c0 6 3.33301 10.334 10 13.001l301 119v2l-301 119c-6.66699 2.66699 -10 7 -10 13v62c0 6 3.33301 8 10 6l400 -164c6.66699 -2.66699 10 -7.33398 10 -14.001v-47c0 -6.66699 -3.33301 -11 -10 -13l-400 -164c-6.66699 -2 -10 0 -10 6v62z" />
    <glyph glyph-name="question" unicode="?" horiz-adv-x="456" 
d="M190 182c-6.66699 0 -10.001 3.33105 -10.001 9.99805v41c0 20 2.33301 36.333 7 49s12.334 26.334 23.001 41.001l67 92c8.66699 12 16 22.667 22 32s10.667 18 14 26s6 15.667 8 23s3 15.333 3 24c0 28.667 -9 51.334 -27 68.001s-41.333 25 -70 25
c-28 0 -50.667 -8 -68 -24s-29.333 -39.667 -36 -71c-1.33301 -6.66699 -5 -9.33398 -11 -8.00098l-63 11c-6.66699 1.33301 -9.33398 5 -8.00098 11c7.33301 48 27.333 86.333 60 115s75.334 43.334 128.001 44.001c26.667 0 51 -4 73 -12s41.333 -19.667 58 -35
s29 -33.333 37 -54s12.333 -43.667 13 -69c0 -24 -4 -45.667 -12 -65s-21 -41 -39 -65l-67 -92c-10 -13.333 -16.667 -25 -20 -35s-5.33301 -23.333 -6 -40v-32c0 -6.66699 -3.33301 -10 -10 -10h-66zM174.999 95.998c0 6.66699 3.33301 10 10 10h76
c6.66699 0 10 -3.33301 10 -10v-86c0 -6.66699 -3.33301 -10 -10 -10h-76c-6.66699 0 -10 3.33301 -10 10v86z" />
    <glyph glyph-name="at" unicode="@" horiz-adv-x="887" 
d="M47 268c0 58 9.66797 111.003 29.001 159.003s46.333 89 81 123s76.334 61 125.001 81s102 29.667 160 29c58 0 111 -9.66699 159 -29s89.667 -46.333 125 -81s62.333 -76 81 -124s28.334 -100.667 29.001 -158c0 -37.333 -4 -69.333 -12 -96s-19.667 -48.667 -35 -66
s-32 -30 -50 -38s-38.667 -12.333 -62 -13c-29.333 0 -54 6.33301 -74 19s-35 30 -45 52h-1c-11.333 -22 -28 -39 -50 -51s-50.333 -18.333 -85 -19c-73.333 0 -121 32.667 -143 98c-4 13.333 -7 28 -9 44s-3.33301 37.667 -4 65c0 26.667 1 48 3 64s5.33301 31 10 45
c11.333 33.333 28.666 58 51.999 74s52.666 24 87.999 24c30 0 54.333 -5.33301 73 -16s32.667 -23.334 42 -38.001h2v35c0 6 2.66699 9 8 9h53c6 0 9 -3 9 -9v-246c0 -30 7 -51.667 21 -65s30.667 -20 50 -20c12 0 23.333 2.33301 34 7s20 12.667 28 24
s14.333 26.666 19 45.999s7 43 7 71c0 48 -7.66699 92 -23 132s-37 74.667 -65 104s-61.667 51.666 -101 66.999s-84 23.333 -134 24c-49.333 0 -94 -7.66699 -134 -23s-74 -37.666 -102 -66.999s-49.667 -63.666 -65 -102.999s-23 -84 -23 -134
c0 -49.333 7.66699 -94 23 -134s37 -74.333 65 -103s62 -51 102 -67s84.667 -24 134 -24c48 0 88.667 4 122 12s64.666 19.333 93.999 34c6.66699 3.33301 11.334 2 14.001 -4l16 -40c3.33301 -5.33301 2 -9.66602 -4 -12.999c-34 -18 -69.667 -31.333 -107 -40
s-82.333 -13.334 -135 -14.001c-58 0 -111.333 9.33301 -160 28s-90.334 45.667 -125.001 81s-61.667 76.666 -81 123.999s-29 100.666 -29 159.999zM347.001 184.003c14 -41.333 43.999 -62 89.999 -62s76.333 20.667 91 62c3.33301 9.33301 5.33301 19.666 6 30.999
s1.33398 27.333 2.00098 48c0 20 -0.333008 35.667 -1 47s-3 22 -7 32c-14.667 41.333 -45 62 -91 62s-76 -20.667 -90 -62c-3.33301 -9.33301 -5.66602 -19.666 -6.99902 -30.999s-2 -27.333 -2 -48c0 -20 0.666992 -35.667 2 -47s3.66602 -22 6.99902 -32z" />
    <glyph glyph-name="A" unicode="A" horiz-adv-x="607" 
d="M260 670c2 6.66699 6 10 12 10h65c6.66699 0 11 -3.33301 13 -10l233 -660c2 -6.66699 -0.333008 -10 -7 -10h-70c-6.66699 -0 -11 3.33301 -13 10l-52 148h-275l-52 -148c-2.66699 -6.66699 -7 -10 -13 -10h-70c-6.66699 -0 -9 3.33301 -7 10zM412 240l-107 309h-2
l-108 -309h217z" />
    <glyph glyph-name="B" unicode="B" horiz-adv-x="604" 
d="M84 670c0 6.66699 3.33398 10 10.001 10h241c68.667 0 120 -16 154 -48s51 -75.667 51 -131c0 -40 -8.33301 -72 -25 -96s-38.667 -41.333 -66 -52v-2c11.333 -3.33301 23 -9 35 -17s23.333 -18.667 34 -32s18.667 -29 24 -47s8.66602 -38.333 9.99902 -61
c0 -64 -19 -112.333 -57 -145s-93 -49 -165 -49h-236c-6.66699 -0 -10 3.33301 -10 10v660zM333.001 386c38 0 67.333 9.66699 88 29s31 45 31 77c0 32.667 -10.333 58.667 -31 78s-50 29 -88 29h-154c-4 0 -6 -2 -6 -6v-201c0 -4 2 -6 6 -6h154zM173.001 87c0 -4 2 -6 6 -6
h159c40.667 0 71.667 10 93 30s32 47.333 32 82c0 34 -10.667 61 -32 81s-52.333 30.333 -93 31h-159c-4 0 -6 -2 -6 -6v-212z" />
    <glyph glyph-name="C" unicode="C" horiz-adv-x="566" 
d="M78 149c-3.33301 10 -6.00391 19.998 -8.00391 29.998s-4 22.333 -6 37s-3 32 -3 52s-0.333008 44 -1 72c0 28 0.333008 52 1 72s1.66699 37 3 51s3 26.333 5 37s5 21 9 31c17.333 54 45.333 94 84 120s86 39.333 142 40c50.667 0 94.667 -11.667 132 -35
s66 -57.333 86 -102c2 -6 0.666992 -10.333 -4 -13l-60 -29c-6.66699 -3.33301 -11.334 -1.66602 -14.001 5.00098c-13.333 26.667 -31 48.334 -53 65.001s-51 25.334 -87 26.001c-37.333 0 -67.333 -8.66699 -90 -26s-39.667 -42 -51 -74c-2 -7.33301 -3.66699 -15 -5 -23
s-2.66602 -18.333 -3.99902 -31s-2.33301 -28 -3 -46s-1 -40.667 -1 -68c0 -26.667 0.333008 -49 1 -67s1.33398 -33.333 2.00098 -46s2 -23.334 4 -32.001s4 -16.334 6 -23.001c11.333 -32 28.333 -56.667 51 -74s52.667 -26 90 -26c36 0 65 8.33301 87 25
s39.667 38.667 53 66c2.66699 6.66699 7.33398 8.33398 14.001 5.00098l60 -29c4.66699 -2.66699 6 -7 4 -13c-19.333 -44 -47.666 -77.667 -84.999 -101s-81.666 -35.333 -132.999 -36c-56 0 -103.333 13 -142 39s-66.667 66.333 -84 121z" />
    <glyph glyph-name="D" unicode="D" horiz-adv-x="623" 
d="M84 670c0 6.66699 3.33301 10.002 10 10.002h229c116.667 0 190.667 -48.333 222 -145c2.66699 -9.33301 5 -19 7 -29s4 -22.333 6 -37s3.33301 -32.334 4 -53.001s1 -46 1 -76s-0.333008 -55.333 -1 -76s-1.66699 -38.334 -3 -53.001s-3.33301 -27 -6 -37l-8 -29
c-31.333 -96.667 -105.333 -145 -222 -145h-229c-6.66699 -0 -10 3.33301 -10 10v660zM173 89.002c0 -4 2.00293 -6 6.00293 -6h125c41.333 0 74.666 7 99.999 21s43.666 38 54.999 72c2 6 4 13 6 21s3.33301 18 4 30s1.66699 27.333 3 46s1.66602 41 0.999023 67
c0 26.667 -0.333008 49 -1 67s-1.33398 33 -2.00098 45s-2.33398 22.333 -5.00098 31s-4.66699 15.667 -6 21c-11.333 33.333 -29.666 57 -54.999 71s-58.666 21.333 -99.999 22h-125c-4 0 -6 -2 -6 -6v-502z" />
    <glyph glyph-name="E" unicode="E" horiz-adv-x="563" 
d="M84 670c0 6.66699 3.33301 10 10 10h409c6.66699 0 10 -3.33301 10 -10v-63c0 -6.66699 -3.33301 -10 -10 -10h-324c-4 0 -6 -2 -6 -6v-200c0 -4 2 -6 6 -6h275c6.66699 0 10 -3.33301 10 -10v-63c0 -6.66699 -3.33301 -10 -10 -10h-275c-4 0 -6 -2 -6 -6v-207
c0 -4 2 -6 6 -6h324c6.66699 0 10 -3.33301 10 -10v-63c0 -6.66699 -3.33301 -10 -10 -10h-409c-6.66699 -0 -10 3.33301 -10 10v660z" />
    <glyph glyph-name="F" unicode="F" horiz-adv-x="556" 
d="M84 670c0 6.66699 3.33301 10 10 10h409c6.66699 0 10 -3.33301 10 -10v-63c0 -6.66699 -3.33301 -10 -10 -10h-324c-4 0 -6 -2 -6 -6v-207c0 -4 2 -6 6 -6h275c6.66699 0 10 -3.33301 10 -10v-63c0 -6.66699 -3.33301 -10 -10 -10h-275c-4 0 -6 -2 -6 -6v-279
c0 -6.66699 -3.33301 -10 -10 -10h-69c-6.66699 -0 -10 3.33301 -10 10v660z" />
    <glyph glyph-name="G" unicode="G" horiz-adv-x="619" 
d="M78 148c-3.33301 10 -6.00586 20.334 -8.00586 31.001s-3.66699 23 -5 37s-2.66602 31.333 -3.99902 52s-1.66602 44.667 -0.999023 72c0 28 0.333008 52 1 72s1.66699 37 3 51s3.33301 26.667 6 38s5.33398 21.666 8.00098 30.999c17.333 52.667 46 92.334 86 119.001
s89 40 147 40c30 0 57 -3.33301 81 -10s45.333 -16.334 64 -29.001s34.667 -27 48 -43s24.333 -33.667 33 -53c3.33301 -6 2.33301 -10.667 -3 -14l-60 -29c-6 -3.33301 -10.667 -1.66602 -14 5.00098c-16.667 30.667 -36.667 53.334 -60 68.001s-53 22 -89 22
c-38.667 0 -70 -8.66699 -94 -26s-41.667 -42.333 -53 -75c-2 -6 -4 -13.333 -6 -22s-3.33301 -19.334 -4 -32.001s-1.66699 -28 -3 -46s-1.66602 -40.333 -0.999023 -67c0 -26 0.333008 -48 1 -66s1.33398 -33.667 2.00098 -47s2.33398 -24 5.00098 -32
s4.66699 -15.333 6 -22c10.667 -32.667 28 -57.667 52 -75s55.667 -26 95 -26c34.667 0 65 8.33301 91 25s44.333 41 55 73c3.33301 11.333 6.33301 25.666 9 42.999s4 38.666 4 63.999c0 4 -2 6 -6 6h-132c-6.66699 0 -10 3.33301 -10 10v58c0 6.66699 3.33301 10 10 10
h217c6.66699 0 10 -3.33301 10 -10v-51c0 -30.667 -1.33301 -59 -4 -85s-7 -47.667 -13 -65c-16.667 -52 -45 -91.667 -85 -119s-88.667 -41.333 -146 -42c-58 0 -107 13.333 -147 40s-68.667 66.334 -86 119.001z" />
    <glyph glyph-name="H" unicode="H" horiz-adv-x="653" 
d="M84 670c0 6.66699 3.33301 10 10 10h69c6.66699 0 10 -3.33301 10 -10v-279c0 -4 2 -6 6 -6h295c4 0 6 2 6 6v279c0 6.66699 3.33301 10 10 10h69c6.66699 0 10 -3.33301 10 -10v-660c0 -6.66699 -3.33301 -10 -10 -10h-69c-6.66699 -0 -10 3.33301 -10 10v286
c0 4 -2 6 -6 6h-295c-4 0 -6 -2 -6 -6v-286c0 -6.66699 -3.33301 -10 -10 -10h-69c-6.66699 -0 -10 3.33301 -10 10v660z" />
    <glyph glyph-name="I" unicode="I" horiz-adv-x="257" 
d="M84 670c0 6.66699 3.33301 10 10 10h69c6.66699 0 10 -3.33301 10 -10v-660c0 -6.66699 -3.33301 -10 -10 -10h-69c-6.66699 -0 -10 3.33301 -10 10v660z" />
    <glyph glyph-name="J" unicode="J" horiz-adv-x="491" 
d="M33 59c-4.66699 4.66699 -4.66699 9.33398 0 14.001l50 43c4.66699 4 9.66699 3.33301 15 -2c10.667 -10 24.334 -19.333 41.001 -28s36 -13.334 58 -14.001c40 0 71 11.667 93 35s33 60.333 33 111v452c0 6.66699 3.33301 10 10 10h69c6.66699 0 10 -3.33301 10 -10
v-452c0 -76 -19.667 -133 -59 -171s-92.333 -57.333 -159 -58c-33.333 0 -64.333 6.66699 -93 20s-51.334 30 -68.001 50z" />
    <glyph glyph-name="K" unicode="K" horiz-adv-x="616" 
d="M84 670c0 6.66699 3.33301 10 10 10h69c6.66699 0 10 -3.33301 10 -10v-354l289 355c4 6 9.33301 9 16 9h82c3.33301 0 5.33301 -1 6 -3s0 -5 -2 -9l-212 -255l233 -402c4.66699 -7.33301 2.66699 -11 -6 -11h-80c-6 0 -10.667 3 -14 9l-191 335l-121 -146v-188
c0 -6.66699 -3.33301 -10 -10 -10h-69c-6.66699 -0 -10 3.33301 -10 10v660z" />
    <glyph glyph-name="L" unicode="L" horiz-adv-x="538" 
d="M84 670c0 6.66699 3.33301 10 10 10h69c6.66699 0 10 -3.33301 10 -10v-581c0 -4 2 -6 6 -6h324c6.66699 0 10 -3.33301 10 -10v-63c0 -6.66699 -3.33301 -10 -10 -10h-409c-6.66699 -0 -10 3.33301 -10 10v660z" />
    <glyph glyph-name="M" unicode="M" horiz-adv-x="755" 
d="M84 670c0 6.66699 3.33203 10 9.99902 10h65c8 0 13.333 -3.33301 16 -10l203 -458h3l199 458c2.66699 6.66699 8 10 16 10h65c6.66699 0 10 -3.33301 10 -10v-660c0 -6.66699 -3.33301 -10 -10 -10h-63c-6.66699 -0 -10 3.33301 -10 10v473h-3l-169 -374
c-3.33301 -8 -9.33301 -12 -18 -12h-40c-9.33301 0 -15.666 4 -18.999 12l-169 374h-3v-473c0 -6.66699 -3.33301 -10 -10 -10h-63c-6.66699 -0 -10 3.33301 -10 10v660z" />
    <glyph glyph-name="N" unicode="N" horiz-adv-x="654" 
d="M84 670c0 6.66699 3.33301 10 10 10h64c8 0 13.667 -3.33301 17 -10l308 -510h4v510c0 6.66699 3.33301 10 10 10h63c6.66699 0 10 -3.33301 10 -10v-660c0 -6.66699 -3.33301 -10 -10 -10h-64c-8 -0 -13.667 3.33301 -17 10l-309 508h-3v-508
c0 -6.66699 -3.33301 -10 -10 -10h-63c-6.66699 -0 -10 3.33301 -10 10v660z" />
    <glyph glyph-name="O" unicode="O" horiz-adv-x="619" 
d="M309 -11c-57.333 0 -105.667 13.333 -145 40s-68 66.334 -86 119.001c-3.33301 10 -6 20.333 -8 31s-4 23 -6 37s-3 31.333 -3 52s-0.333008 44.667 -1 72c0 28 0.333008 52 1 72s1.66699 37 3 51s3 26.667 5 38s5 21.666 9 30.999
c17.333 52.667 45.666 92.334 84.999 119.001s88 40 146 40s106.667 -13.333 146 -40s68 -66.334 86 -119.001c3.33301 -10 6 -20.333 8 -31s4 -23 6 -37s3 -31.333 3 -52s0.333008 -44.667 1 -72c0 -28 -0.333008 -52 -1 -72s-1.66699 -37 -3 -51s-3 -26.667 -5 -38
s-5 -21.666 -9 -30.999c-17.333 -52.667 -45.666 -92.334 -84.999 -119.001s-88.333 -40 -147 -40zM308.999 72c38 0 68.999 8.66699 92.999 26s41.333 42.333 52 75c2 6 3.66699 13.333 5 22l5 34c2 14 3.33301 29.667 4 47s1 38.666 1 63.999c0 24.667 -0.333008 46 -1 64
s-1.66699 33.667 -3 47s-3 24.333 -5 33s-4 16.334 -6 23.001c-10.667 32.667 -28 57.667 -52 75s-55 26 -93 26s-68.667 -8.66699 -92 -26s-40.666 -42.333 -51.999 -75c-2 -6 -3.66699 -13.333 -5 -22l-5 -34c-2 -14 -3.33301 -29.667 -4 -47s-1 -38.666 -1 -63.999
c0 -24.667 0.333008 -46 1 -64s1.66699 -33.667 3 -47s3 -24.333 5 -33s4 -16.334 6 -23.001c10.667 -32.667 27.667 -57.667 51 -75s54.333 -26 93 -26z" />
    <glyph glyph-name="P" unicode="P" horiz-adv-x="592" 
d="M94 0c-6.66699 0 -10.002 3.33398 -10.002 10.001v660c0 6.66699 3.33301 10 10 10h242c32.667 0 62.334 -4.66699 89.001 -14s49.334 -23 68.001 -41s33 -39.333 43 -64s15.333 -52.667 16 -84c0 -30.667 -5 -58.334 -15 -83.001s-24.667 -46 -44 -64
s-42 -31.667 -68 -41s-55.667 -14.333 -89 -15h-157c-4 0 -6 -2 -6 -6v-258c0 -6.66699 -3.33301 -10 -10 -10h-69zM330.998 357.001c42 0 74.667 10.6689 98 32.002s35 50.666 35 87.999s-11.667 66.666 -35 87.999s-56 32 -98 32h-152c-4 0 -6 -2 -6 -6v-228
c0 -4 2 -6 6 -6h152z" />
    <glyph glyph-name="Q" unicode="Q" horiz-adv-x="619" 
d="M309 -11c-57.333 0 -105.666 13.333 -144.999 40s-68 66.334 -86 119.001c-3.33301 10 -6 20.333 -8 31s-4 23 -6 37s-3 31.333 -3 52s-0.333008 44.667 -1 72c0 28 0.333008 52 1 72s1.66699 37 3 51s3 26.667 5 38s5 21.666 9 30.999
c17.333 52.667 45.666 92.334 84.999 119.001s88 40 146 40s106.667 -13.333 146 -40s68 -66.334 86 -119.001c3.33301 -10 6 -20.333 8 -31s4 -23 6 -37s3 -31.333 3 -52s0.333008 -44.667 1 -72c0 -28 -0.333008 -52 -1 -72s-1.66699 -37 -3 -51s-3 -26.667 -5 -38
s-5 -21.666 -9 -30.999c-3.33301 -10.667 -7 -20.334 -11 -29.001s-9 -17.667 -15 -27l71 -70c4 -4 4 -8.66699 0 -14l-44 -47c-2 -2 -4.33301 -3 -7 -3s-5.33398 1 -8.00098 3l-70 69c-39.333 -27.333 -88.666 -41 -147.999 -41zM309 72c34 0 62.666 7 85.999 21l-74 75
c-4 4 -4 8.66699 0 14l44 48c5.33301 4 10 4 14 0l70 -71l5 14c2 6 3.66699 13.333 5 22l5 34c2 14 3.33301 29.667 4 47s1 38.666 1 63.999c0 24.667 -0.333008 46 -1 64s-1.66699 33.667 -3 47s-3 24.333 -5 33s-4 16.334 -6 23.001c-10.667 32.667 -28 57.667 -52 75
s-55 26 -93 26s-68.667 -8.66699 -92 -26s-40.666 -42.333 -51.999 -75c-2 -6 -3.66699 -13.333 -5 -22l-5 -34c-2 -14 -3.33301 -29.667 -4 -47s-1 -38.666 -1 -63.999c0 -24.667 0.333008 -46 1 -64s1.66699 -33.667 3 -47s3 -24.333 5 -33s4 -16.334 6 -23.001
c10.667 -32.667 27.667 -57.667 51 -75s54.333 -26 93 -26z" />
    <glyph glyph-name="R" unicode="R" horiz-adv-x="617" 
d="M478 0c-6 0 -10.334 3.33398 -13.001 10.001l-136 278h-150c-4 0 -6 -2 -6 -6v-272c0 -6.66699 -3.33301 -10 -10 -10h-69c-6.66699 0 -10 3.33301 -10 10v660c0 6.66699 3.33301 10 10 10h246c32 0 61 -4.66699 87 -14s48.333 -22.333 67 -39s33 -37.334 43 -62.001
s15.333 -51.667 16 -81c0 -46 -12 -85 -36 -117s-56.667 -54.667 -98 -68l145 -287c2 -3.33301 2.33301 -6 1 -8s-3.66602 -3.33301 -6.99902 -4h-80zM337.999 371.001c40 0 71 9.66699 93 29s33 47.333 33 84c0 36 -11 63.667 -33 83s-53 29.333 -93 30h-159
c-4 0 -6 -2 -6 -6v-214c0 -4 2 -6 6 -6h159z" />
    <glyph glyph-name="S" unicode="S" horiz-adv-x="591" 
d="M290 -11c-24 0 -47.665 2.33398 -70.998 7.00098s-45.333 10.667 -66 18s-39.667 16.333 -57 27s-32.333 21.667 -45 33c-4.66699 4.66699 -5 9.66699 -1 15l44 52c4 4.66699 8.66699 5 14 1c22 -17.333 49.333 -33.333 82 -48s68.667 -22 108 -22
c47.333 0 84 10.667 110 32s39.333 49.333 40 84c0 14.667 -2.33301 28 -7 40s-12.334 22.667 -23.001 32s-25.334 17.333 -44.001 24s-41.334 11.667 -68.001 15l-34 5c-133.333 18 -200 80.667 -200 188c0 30 5 57.333 15 82s25 45.667 45 63s43.333 30.666 70 39.999
s57.334 14 92.001 14c40 0 78 -5.66699 114 -17s67 -26.666 93 -45.999c5.33301 -4 6 -8.66699 2 -14l-34 -55c-4 -4.66699 -8.66699 -5.33398 -14 -2.00098c-28 17.333 -55 30 -81 38s-53.667 12.333 -83 13c-42 0 -74 -10 -96 -30s-33 -46.667 -33 -80
c0 -28.667 10.667 -52 32 -70s58.333 -31 111 -39l33 -5c66.667 -9.33301 116.667 -29.333 150 -60s50 -74 50 -130c0 -30 -5 -57.333 -15 -82s-25.667 -46.334 -47 -65.001s-47.333 -32.667 -78 -42s-66.667 -14.666 -108 -15.999z" />
    <glyph glyph-name="T" unicode="T" horiz-adv-x="537" 
d="M234 0c-6.66699 0 -10 3.33301 -10 10v581c0 4 -2 6 -6 6h-186c-6.66699 0 -10 3.33301 -10 10v63c0 6.66699 3.33301 10 10 10h473c6.66699 0 10 -3.33301 10 -10v-63c0 -6.66699 -3.33301 -10 -10 -10h-186c-4 0 -6 -2 -6 -6v-581c0 -6.66699 -3.33301 -10 -10 -10h-69
z" />
    <glyph glyph-name="U" unicode="U" horiz-adv-x="639" 
d="M320 -11c-75.333 0 -134.331 20.999 -176.998 62.999s-64 103.667 -64 185v433c0 6.66699 3.33301 10 10 10h69c6.66699 0 10 -3.33301 10 -10v-432c0 -55.333 13.667 -96.666 41 -123.999s64.333 -41.333 111 -42c45.333 0 81.666 13.667 108.999 41s41.333 69 42 125
v432c0 6.66699 3.33301 10 10 10h69c6.66699 0 10 -3.33301 10 -10v-433c0 -80.667 -21.333 -142 -64 -184s-101.334 -63.333 -176.001 -64z" />
    <glyph glyph-name="V" unicode="V" horiz-adv-x="562" 
d="M252 0c-6 0 -9.99805 3.33301 -11.998 10l-220 658c-1.33301 4 -1.33301 7 0 9s3.66602 3 6.99902 3h68c7.33301 0 12 -3.33301 14 -10l174 -525h2l168 525c2 6.66699 6.33301 10 13 10h69c7.33301 0 9.66602 -4 6.99902 -12l-219 -658c-2 -6.66699 -6 -10 -12 -10h-59z
" />
    <glyph glyph-name="W" unicode="W" horiz-adv-x="823" 
d="M568 0c-5.33301 0 -9.00098 3.33301 -11.001 10l-145 507h-2l-144 -507c-2 -6.66699 -6 -10 -12 -10h-55c-6 -0 -9.66699 3.33301 -11 10l-164 660c-2 6.66699 0.666992 10 8 10h66c7.33301 0 11.333 -3.33301 12 -10l121 -505h2l141 505c2 6.66699 6 10 12 10h51
c6 0 10 -3.33301 12 -10l144 -505h2l118 505c2 6.66699 6.33301 10 13 10h65c6.66699 0 9.33398 -3.33301 8.00098 -10l-164 -660c-1.33301 -6.66699 -5.33301 -10 -12 -10h-55z" />
    <glyph glyph-name="X" unicode="X" horiz-adv-x="558" 
d="M449 0c-6.66699 0 -11.332 2.99902 -13.999 8.99902l-156 259h-1l-156 -259c-4 -6 -9 -9 -15 -9h-78c-3.33301 0 -5.33301 1 -6 3s-0.333984 5 0.999023 9l205 342l-187 314c-2 3.33301 -2.66699 6 -2 8s3 3.33301 7 4h78c4 0 7 -0.666992 9 -2s4 -3.66602 6 -6.99902
l138 -230h1l139 230c2.66699 6 7.33398 9 14.001 9h78c3.33301 0 5.33301 -1 6 -3s0.666992 -5 0 -9l-188 -314l206 -342c1.33301 -3.33301 1.66602 -6 0.999023 -8s-3 -3.33301 -7 -4h-79z" />
    <glyph glyph-name="Y" unicode="Y" horiz-adv-x="526" 
d="M229 0c-6.66699 0 -10.001 3.33301 -10.001 10v268l-201 391c-2.66699 7.33301 0 11 8 11h71c6 0 11 -3.33301 15 -10l152 -291h2l151 291c2.66699 6.66699 7.33398 10 14.001 10h69c8 0 10.667 -3.66699 8 -11l-201 -391v-268c0 -6.66699 -3.33301 -10 -10 -10h-68z" />
    <glyph glyph-name="Z" unicode="Z" horiz-adv-x="536" 
d="M59 0c-6.66699 0 -10 3.33301 -10 10v63c0 4 1.33301 7.66699 4 11l332 512v1h-314c-6.66699 0 -10 3.33301 -10 10v63c0 6.66699 3.33301 10 10 10h406c6.66699 0 10 -3.33301 10 -10v-63c0 -4 -1.33301 -7.66699 -4 -11l-333 -512v-1h327c6.66699 0 10 -3.33301 10 -10
v-63c0 -6.66699 -3.33301 -10 -10 -10h-418z" />
    <glyph glyph-name="bracketleft" unicode="[" horiz-adv-x="281" 
d="M90 -84c-6.66699 0 -10 3.33301 -10 10v804c0 6.66699 3.33301 10 10 10h144c6.66699 0 10 -3.33301 10 -10v-48c0 -6.66699 -3.33301 -10 -10 -10h-69c-4 0 -6 -2 -6 -6v-676c0 -4 2 -6 6 -6h69c6.66699 0 10 -3.33301 10 -10v-48c0 -6.66699 -3.33301 -10 -10 -10h-144
z" />
    <glyph glyph-name="backslash" unicode="\" horiz-adv-x="417" 
d="M295 -11c-6.66699 0 -11 3.33301 -13 10l-221 682c-2 6.66699 0.333008 10 7 10h53c6.66699 0 11 -3.33301 13 -10l222 -682c2 -6.66699 -0.333008 -10 -7 -10h-54z" />
    <glyph glyph-name="bracketright" unicode="]" horiz-adv-x="281" 
d="M47 -84c-6.66699 0 -10 3.33301 -10 10v48c0 6.66699 3.33301 10 10 10h69c4 0 6 2 6 6v676c0 4 -2 6 -6 6h-69c-6.66699 0 -10 3.33301 -10 10v48c0 6.66699 3.33301 10 10 10h144c6.66699 0 10 -3.33301 10 -10v-804c0 -6.66699 -3.33301 -10 -10 -10h-144z" />
    <glyph glyph-name="asciicircum" unicode="^" 
d="M416 272c-6.66699 0 -11.333 3.33301 -14 10l-130 292h-2l-130 -292c-2.66699 -6.66699 -7 -10 -13 -10h-59c-7.33301 0 -9.33301 3.33301 -6 10l173 388c3.33301 6.66699 8 10 14 10h44c6 0 10.667 -3.33301 14 -10l173 -388c3.33301 -6.66699 1.33301 -10 -6 -10h-58z
" />
    <glyph glyph-name="underscore" unicode="_" horiz-adv-x="476" 
d="M0 -132v56h476v-56h-476z" />
    <glyph glyph-name="grave" unicode="`" horiz-adv-x="421" 
d="M239 557c-8 0 -14.333 3.33301 -19 10l-92 123c-2 2.66699 -2.66699 5 -2 7s3 3 7 3h66c8 0 14 -3.33301 18 -10l75 -123c3.33301 -6.66699 1.33301 -10 -6 -10h-47z" />
    <glyph glyph-name="a" unicode="a" horiz-adv-x="519" 
d="M372 0c-6.66699 0 -10.001 3.33398 -10.001 10.001v42h-1c-11.333 -18 -28.666 -33 -51.999 -45s-53.333 -18 -90 -18c-22.667 0 -43.667 3 -63 9s-36.333 15 -51 27s-26 27 -34 45s-12.333 39 -13 63c0 50.667 16.333 88 49 112s78.667 36 138 36h109c4 0 6 2 6 6v35
c0 33.333 -8 57.333 -24 72s-46.333 22 -91 22c-27.333 0 -50 -3 -68 -9s-34 -14.333 -48 -25c-6 -4.66699 -10.667 -4.33398 -14 0.999023l-27 46c-2.66699 5.33301 -2 10 2 14c18 14 40.667 25.333 68 34s59 13 95 13c68 0 116.333 -12.333 145 -37s43 -66.667 43 -126
v-317c0 -6.66699 -3.33301 -10 -10 -10h-59zM238.999 61.001c38 0 67.667 8.00098 89 24.001s32 39.333 32 70v53c0 4 -2 6 -6 6h-96c-42 0 -72.333 -6 -91 -18s-28 -32 -28 -60c0 -24.667 8.66699 -43.334 26 -56.001s42 -19 74 -19z" />
    <glyph glyph-name="b" unicode="b" horiz-adv-x="538" 
d="M92 0c-6.66699 0 -9.99902 3.33301 -9.99902 10v660c0 6.66699 3.33301 10 10 10h64c6.66699 0 10 -3.33301 10 -10v-246h1c11.333 19.333 27.666 35 48.999 47s50.333 18.333 87 19c42 0 77 -9.66699 105 -29s48 -48 60 -86c6.66699 -19.333 11 -39 13 -59
s3.33301 -45.333 4 -76c0 -30 -1 -55.333 -3 -76s-6.66699 -40.667 -14 -60c-12 -38 -32 -66.667 -60 -86s-63 -29 -105 -29c-36 0 -64.667 6.33301 -86 19s-38 28.667 -50 48h-1v-46c0 -6.66699 -3.33301 -10 -10 -10h-64zM283.001 67c53.333 0 88.333 24.333 105 73
c4 12.667 6.66699 27 8 43s2.33301 35 3 57c0 21.333 -0.666992 40 -2 56s-4.33301 30.667 -9 44c-16.667 48 -51.667 72 -105 72c-54.667 0 -90 -24 -106 -72c-4 -12 -6.66699 -25.667 -8 -41s-2.33301 -35 -3 -59c0 -24 0.666992 -43.667 2 -59s4.33301 -29 9 -41
c16 -48.667 51.333 -73 106 -73z" />
    <glyph glyph-name="c" unicode="c" horiz-adv-x="472" 
d="M53 240c0 26.667 1.33105 49.665 3.99805 68.998s6.33398 36.666 11.001 51.999c13.333 42 36.666 74 69.999 96s73 33 119 33c36.667 0 68.667 -7 96 -21s50 -34 68 -60c3.33301 -5.33301 2.33301 -10 -3 -14l-44 -36c-5.33301 -4 -10 -3.66699 -14 1
c-14 17.333 -28.667 30.333 -44 39s-35 13 -59 13c-26 0 -48.333 -6 -67 -18s-32 -31 -40 -57c-4 -12.667 -6.66699 -26.667 -8 -42s-2.33301 -33.666 -3 -54.999c0 -21.333 0.666992 -39.666 2 -54.999s4.33301 -29.666 9 -42.999c8 -25.333 21.333 -44 40 -56
s41 -18.333 67 -19c24 0 43.667 4.33301 59 13s30 21.667 44 39c4 4.66699 8.66699 5 14 1l44 -36c5.33301 -4 6.33301 -8.66699 3 -14c-17.333 -25.333 -39.666 -45 -66.999 -59s-59.666 -21.333 -96.999 -22c-46 0 -85.667 11 -119 33s-56.666 54 -69.999 96
c-4.66699 14.667 -8.33398 31.667 -11.001 51s-4 43 -4 71z" />
    <glyph glyph-name="d" unicode="d" horiz-adv-x="538" 
d="M382 0c-6.66699 0 -10.001 3.33301 -10.001 10v46h-1c-11.333 -19.333 -27.666 -35.333 -48.999 -48s-50.333 -19 -87 -19c-42 0 -77 9.66699 -105 29s-48 48 -60 86c-6.66699 19.333 -11 39.333 -13 60s-3.33301 46 -4 76c0 30 1 55 3 75s6.66699 40 14 60
c12 38 32 66.667 60 86s63 29 105 29c36 0 64.667 -6 86 -18s38 -28 50 -48h1v246c0 6.66699 3.33301 10 10 10h64c6.66699 0 10 -3.33301 10 -10v-660c0 -6.66699 -3.33301 -10 -10 -10h-64zM254.999 67c54.667 0 90 24.334 106 73.001c4 11.333 6.66699 24.666 8 39.999
s2.33301 35.333 3 60c0 24 -0.666992 43.667 -2 59s-4.33301 29 -9 41c-16 48 -51.333 72 -106 72c-53.333 0 -88.333 -24 -105 -72c-4 -13.333 -6.66699 -28 -8 -44s-2.33301 -34.667 -3 -56c0 -22 0.666992 -41 2 -57s4.33301 -30.333 9 -43
c16.667 -48.667 51.667 -73 105 -73z" />
    <glyph glyph-name="e" unicode="e" horiz-adv-x="512" 
d="M261 -11c-48.667 0 -89.335 11 -122.002 33s-56 54.333 -70 97c-5.33301 15.333 -9.33301 32.333 -12 51s-4 42 -4 70s1 51.333 3 70s6 35.667 12 51c13.333 42 36.333 74 69 96s72.334 33 119.001 33c46 0 85.333 -11 118 -33s56 -54 70 -96
c2.66699 -8 4.66699 -16 6 -24l5 -29c2 -11.333 3 -23.333 3 -36s0.333008 -28.667 1 -48c0 -6.66699 -3.66699 -10 -11 -10h-303c-4 0 -6 -2 -6 -6c0 -13.333 0.666992 -24.333 2 -33s3.33301 -17 6 -25c9.33301 -28 24.333 -48.667 45 -62s46 -20.333 76 -21
c28.667 0 53 5 73 15s36.667 22.667 50 38c5.33301 5.33301 10.333 6 15 2l41 -37c4.66699 -4 5 -8.66699 1 -14c-19.333 -24 -44.666 -43.667 -75.999 -59s-68.333 -23 -111 -23zM366.999 281c4 0 6.00098 2 6.00098 6c0 22 -2.33301 40 -7 54c-8 24 -21.333 42.333 -40 55
s-42 19.334 -70 20.001c-27.333 0 -50.333 -6.33301 -69 -19s-32.334 -31.334 -41.001 -56.001c-4.66699 -14 -7 -32 -7 -54c0 -4 2 -6 6 -6h222z" />
    <glyph glyph-name="f" unicode="f" horiz-adv-x="318" 
d="M108 0c-6.66699 0 -10.002 3.33008 -10.002 9.99707v395c0 4 -2 6 -6 6h-41c-6.66699 0 -10 3.33301 -10 10v48c0 6.66699 3.33301 10 10 10h41c4 0 6 2 6 6v41c0 56.667 11.667 96.334 35 119.001s60.333 34.334 111 35.001h37c6.66699 0 10 -3.33301 10 -10v-58
c0 -6.66699 -3.33301 -10 -10 -10h-26c-15.333 0 -27.666 -1 -36.999 -3s-16.666 -5.66699 -21.999 -11s-9 -12.666 -11 -21.999s-3 -21.333 -3 -36v-45c0 -4 2 -6 6 -6h93c6.66699 0 10 -3.33301 10 -10v-48c0 -6.66699 -3.33301 -10 -10 -10h-93c-4 0 -6 -2 -6 -6v-395
c0 -6.66699 -3.33301 -10 -10 -10h-64z" />
    <glyph glyph-name="g" unicode="g" horiz-adv-x="529" 
d="M238 -191c-34 0 -66 6.3291 -96 18.9961s-53.333 30 -70 52c-4 4.66699 -3.66699 9.33398 1 14.001l41 41c4.66699 4.66699 9.66699 4.66699 15 0c16.667 -15.333 33.667 -27 51 -35s38 -12.333 62 -13c40 0 70 10.333 90 31s30.333 53.334 31 98.001v56h-1
c-11.333 -20 -27.333 -36 -48 -48s-49 -18 -85 -18c-40.667 0 -74.667 9.66699 -102 29s-47 48.333 -59 87c-6 18 -10 36.333 -12 55s-3.33301 42.334 -4 71.001c0 28 1 51.333 3 70s6.33301 37.334 13 56.001c12 38 31.667 66.667 59 86s61.333 29.333 102 30
c35.333 0 63.333 -6 84 -18s37 -28 49 -48h1v45c0 6.66699 3.33301 10 10 10h64c6.66699 0 10 -3.33301 10 -10v-448c0 -68.667 -17.667 -121 -53 -157s-87.333 -54.333 -156 -55zM250 82.9961c51.333 0 85.333 24 102 72c4 12 6.66699 25.333 8 40s2.33301 32.334 3 53.001
c0 20.667 -0.666992 38 -2 52s-4.33301 27.667 -9 41c-16.667 47.333 -50.667 71 -102 71c-50.667 0 -84.334 -23.667 -101.001 -71c-4 -12.667 -7 -26.334 -9 -41.001s-3 -32 -3 -52c0 -38 4 -69 12 -93c16.667 -48 50.334 -72 101.001 -72z" />
    <glyph glyph-name="h" unicode="h" horiz-adv-x="544" 
d="M393 0c-6.66699 0 -10.001 3.33496 -10.001 10.002v280c0 38.667 -8.66699 68.667 -26 90s-44.333 32 -81 32c-32.667 0 -59 -10.333 -79 -31s-30.333 -49.334 -31 -86.001v-285c0 -6.66699 -3.33301 -10 -10 -10h-64c-6.66699 0 -10 3.33301 -10 10v660
c0 6.66699 3.33301 10 10 10h64c6.66699 0 10 -3.33301 10 -10v-245h1c11.333 18.667 28.333 34 51 46s50.334 18.333 83.001 19c52 0 92.667 -16.333 122 -49s44 -76.334 44 -131.001v-300c0 -6.66699 -3.33301 -10 -10 -10h-64z" />
    <glyph glyph-name="i" unicode="i" horiz-adv-x="248" 
d="M90 587c-6.66699 0 -10 3.33301 -10 10v73c0 6.66699 3.33301 10 10 10h68c6.66699 0 10 -3.33301 10 -10v-73c0 -6.66699 -3.33301 -10 -10 -10h-68zM92 0c-6.66699 0 -10 3.33301 -10 10v459c0 6.66699 3.33301 10 10 10h64c6.66699 0 10 -3.33301 10 -10v-459
c0 -6.66699 -3.33301 -10 -10 -10h-64z" />
    <glyph glyph-name="j" unicode="j" horiz-adv-x="248" 
d="M90 587c-6.66699 0 -10 3.33301 -10 10v73c0 6.66699 3.33301 10 10 10h68c6.66699 0 10 -3.33301 10 -10v-73c0 -6.66699 -3.33301 -10 -10 -10h-68zM3 -180c-6.66699 0 -9.99902 3.33301 -9.99902 10v58c0 6.66699 3.33301 10 10 10h16
c23.333 0 39.666 4.33301 48.999 13s14 25.667 14 51v507c0 6.66699 3.33301 10 10 10h64c6.66699 0 10 -3.33301 10 -10v-505c0 -52 -11.667 -89 -35 -111s-59.333 -33 -108 -33h-20z" />
    <glyph glyph-name="k" unicode="k" horiz-adv-x="511" 
d="M401 0c-6.66699 0 -11.999 3.33301 -15.999 10l-136 223l-83 -97v-126c0 -6.66699 -3.33301 -10 -10 -10h-64c-6.66699 -0 -10 3.33301 -10 10v660c0 6.66699 3.33301 10 10 10h64c6.66699 0 10 -3.33301 10 -10v-423l189 223c5.33301 6 11.333 9 18 9h74
c3.33301 0 5.33301 -1 6 -3s0 -4.33301 -2 -7l-147 -171l177 -288c1.33301 -2 1.66602 -4 0.999023 -6s-3 -3.33301 -7 -4h-74z" />
    <glyph glyph-name="l" unicode="l" horiz-adv-x="277" 
d="M197 -5c-42 0 -71.999 10 -89.999 30s-27 52 -27 96v549c0 6.66699 3.33301 10 10 10h64c6.66699 0 10 -3.33301 10 -10v-544c0 -20 3.66699 -33.667 11 -41s19.666 -11.333 36.999 -12h19c6.66699 0 10 -3.33301 10 -10v-58c0 -6.66699 -3.33301 -10 -10 -10h-34z" />
    <glyph glyph-name="m" unicode="m" horiz-adv-x="845" 
d="M694 0c-6.66699 0 -10.0029 3.33789 -10.0029 10.0049v280c0 38.667 -8.66699 68.667 -26 90s-44.333 32 -81 32c-32 0 -58.333 -10.333 -79 -31s-31 -49.334 -31 -86.001v-285c0 -6.66699 -3.33301 -10 -10 -10h-64c-6.66699 0 -10 3.33301 -10 10v280
c0 38.667 -8.66699 68.667 -26 90s-44.333 32 -81 32c-32.667 0 -59 -10.333 -79 -31s-30.333 -49.334 -31 -86.001v-285c0 -6.66699 -3.33301 -10 -10 -10h-64c-6.66699 0 -10 3.33301 -10 10v459c0 6.66699 3.33301 10 10 10h64c6.66699 0 10 -3.33301 10 -10v-44h1
c11.333 18.667 28.333 34 51 46s50.334 18.333 83.001 19c32.667 0 60.667 -6.33301 84 -19s42 -31.334 56 -56.001h1c16.667 23.333 37.334 41.666 62.001 54.999s55.667 20 93 20c56 0 98.333 -16.333 127 -49s43.334 -76.334 44.001 -131.001v-300
c0 -6.66699 -3.33301 -10 -10 -10h-64z" />
    <glyph glyph-name="n" unicode="n" horiz-adv-x="544" 
d="M393 0c-6.66699 0 -10.001 3.33496 -10.001 10.002v280c0 38.667 -8.66699 68.667 -26 90s-44.333 32 -81 32c-32.667 0 -59 -10.333 -79 -31s-30.333 -49.334 -31 -86.001v-285c0 -6.66699 -3.33301 -10 -10 -10h-64c-6.66699 0 -10 3.33301 -10 10v459
c0 6.66699 3.33301 10 10 10h64c6.66699 0 10 -3.33301 10 -10v-44h1c11.333 18.667 28.333 34 51 46s50.334 18.333 83.001 19c52 0 92.667 -16.333 122 -49s44 -76.334 44 -131.001v-300c0 -6.66699 -3.33301 -10 -10 -10h-64z" />
    <glyph glyph-name="o" unicode="o" horiz-adv-x="516" 
d="M258 -11c-46.667 0 -86.334 11.333 -119.001 34s-56 54.334 -70 95.001c-5.33301 16.667 -9.33301 34 -12 52s-4 41.333 -4 70c0 28 1.33301 51 4 69s6.66699 35.333 12 52c13.333 41.333 36.333 73 69 95s72.667 33.333 120 34c46.667 0 86.334 -11 119.001 -33
s56 -54 70 -96c5.33301 -16.667 9.33301 -34 12 -52s4 -41 4 -69s-1.33301 -51 -4 -69s-6.66699 -35.667 -12 -53c-13.333 -40.667 -36.333 -72.334 -69 -95.001s-72.667 -34 -120 -34zM258 67c26.667 0 49.334 6.33301 68.001 19s32 31.334 40 56.001
c4 13.333 6.66699 27 8 41s2.33301 33 3 57c0 23.333 -0.666992 42 -2 56s-4.33301 27.667 -9 41c-8 24 -21.333 42.333 -40 55s-41.334 19.334 -68.001 20.001c-26.667 0 -49.334 -6.33301 -68.001 -19s-32 -31.334 -40 -56.001c-4 -13.333 -6.66699 -27 -8 -41
s-2.33301 -32.667 -3 -56c0 -23.333 0.666992 -42 2 -56s4.33301 -28 9 -42c8 -24 21.333 -42.333 40 -55s41.334 -19.334 68.001 -20.001z" />
    <glyph glyph-name="p" unicode="p" horiz-adv-x="538" 
d="M92 -180c-6.66699 0 -9.99902 3.33301 -9.99902 10v639c0 6.66699 3.33301 10 10 10h64c6.66699 0 10 -3.33301 10 -10v-45h1c11.333 19.333 27.666 35 48.999 47s50.333 18.333 87 19c42 0 77 -9.66699 105 -29s48 -48 60 -86c6.66699 -19.333 11 -39 13 -59
s3.33301 -45.333 4 -76c0 -30 -1 -55.333 -3 -76s-6.66699 -40.667 -14 -60c-12 -38 -32 -66.667 -60 -86s-63 -29 -105 -29c-36 0 -64.667 6.33301 -86 19s-38 28.667 -50 48h-1v-226c0 -6.66699 -3.33301 -10 -10 -10h-64zM283.001 67c53.333 0 88.333 24.333 105 73
c4 12.667 6.66699 27 8 43s2.33301 35 3 57c0 21.333 -0.666992 40 -2 56s-4.33301 30.667 -9 44c-16.667 48 -51.667 72 -105 72c-54.667 0 -90 -24 -106 -72c-4 -12 -6.66699 -25.667 -8 -41s-2.33301 -35 -3 -59c0 -24 0.666992 -43.667 2 -59s4.33301 -29 9 -41
c16 -48.667 51.333 -73 106 -73z" />
    <glyph glyph-name="q" unicode="q" horiz-adv-x="538" 
d="M382 -180c-6.66699 0 -10.001 3.33301 -10.001 10v226h-1c-11.333 -19.333 -27.666 -35.333 -48.999 -48s-50.333 -19 -87 -19c-42 0 -77 9.66699 -105 29s-48 48 -60 86c-6.66699 19.333 -11 39.333 -13 60s-3.33301 46 -4 76c0 30 1 55 3 75s6.66699 40 14 60
c12 38 32 66.667 60 86s63 29 105 29c36 0 64.667 -6 86 -18s38 -28 50 -48h1v45c0 6.66699 3.33301 10 10 10h64c6.66699 0 10 -3.33301 10 -10v-639c0 -6.66699 -3.33301 -10 -10 -10h-64zM254.999 67c54.667 0 90 24.334 106 73.001c4 11.333 6.66699 24.666 8 39.999
s2.33301 35.333 3 60c0 24 -0.666992 43.667 -2 59s-4.33301 29 -9 41c-16 48 -51.333 72 -106 72c-53.333 0 -88.333 -24 -105 -72c-4 -13.333 -6.66699 -28 -8 -44s-2.33301 -34.667 -3 -56c0 -22 0.666992 -41 2 -57s4.33301 -30.333 9 -43
c16.667 -48.667 51.667 -73 105 -73z" />
    <glyph glyph-name="r" unicode="r" horiz-adv-x="410" 
d="M92 0c-6.66699 0 -10.0039 3.33203 -10.0039 9.99902v459c0 6.66699 3.33301 10 10 10h64c6.66699 0 10 -3.33301 10 -10v-49h1c10.667 20.667 26.334 37.334 47.001 50.001s47.334 19.334 80.001 20.001c19.333 0 37.333 -3 54 -9s31.334 -15 44.001 -27
c4.66699 -4.66699 5.33398 -9.33398 2.00098 -14.001l-37 -49c-4 -5.33301 -8.66699 -6 -14 -2c-11.333 7.33301 -23 13 -35 17s-25 6 -39 6c-36.667 0 -63 -12.667 -79 -38s-24 -59.333 -24 -102v-262c0 -6.66699 -3.33301 -10 -10 -10h-64z" />
    <glyph glyph-name="s" unicode="s" horiz-adv-x="490" 
d="M247 -11c-23.333 0 -45.001 1.99805 -65.001 5.99805s-38 9.66699 -54 17s-30.667 15 -44 23s-25 16.667 -35 26c-4.66699 4.66699 -4.66699 9.33398 0 14.001l41 44c4.66699 4.66699 9.33398 4.66699 14.001 0c18 -15.333 39.667 -28.333 65 -39s53 -16 83 -16
c35.333 0 61.666 6.66699 78.999 20s26 31 26 53c0 18.667 -6 33.334 -18 44.001s-37 18.334 -75 23.001l-51 5c-47.333 5.33301 -83 19.333 -107 42s-36 53.667 -36 93c0 46 15.333 81.667 46 107s74.667 38.333 132 39c35.333 0 67.333 -5 96 -15
s53.334 -22.667 74.001 -38c5.33301 -3.33301 6 -8 2 -14l-34 -43c-4 -4.66699 -8.66699 -5.33398 -14 -2.00098c-15.333 10 -34.333 19 -57 27s-46.667 12 -72 12c-30 0 -52.667 -6 -68 -18s-23 -28 -23 -48c0 -19.333 6.66699 -34 20 -44s38 -17 74 -21l50 -5
c48.667 -4.66699 84.667 -18.667 108 -42s35.333 -54.333 36 -93c0 -47.333 -16.333 -85.333 -49 -114s-80.667 -43 -144 -43z" />
    <glyph glyph-name="t" unicode="t" horiz-adv-x="316" 
d="M221 -5c-46.667 0 -79.667 10.667 -99 32s-29.333 56 -30 104v274c0 4 -2 6 -6 6h-40c-6.66699 0 -10 3.33301 -10 10v48c0 6.66699 3.33301 10 10 10h40c4 0 6 2 6 6v135c0 6.66699 3.33301 10 10 10h64c6.66699 0 10 -3.33301 10 -10v-135c0 -4 2 -6 6 -6h76
c6.66699 0 10 -3.33301 10 -10v-48c0 -6.66699 -3.33301 -10 -10 -10h-76c-4 0 -6 -2 -6 -6v-271c0 -24 4.66699 -40 14 -48s25 -12.333 47 -13h21c6.66699 0 10 -3.33301 10 -10v-58c0 -6.66699 -3.33301 -10 -10 -10h-37z" />
    <glyph glyph-name="u" unicode="u" horiz-adv-x="539" 
d="M383 0c-6.66699 0 -9.99805 3.33203 -9.99805 9.99902v45h-1c-12.667 -20 -29.667 -36 -51 -48s-48 -18 -80 -18c-52.667 0 -93.334 16.333 -122.001 49s-43.334 76.667 -44.001 132v299c0 6.66699 3.33301 10 10 10h64c6.66699 0 10 -3.33301 10 -10v-279
c0 -39.333 8.66699 -69.666 26 -90.999s44 -32 80 -32c32.667 0 58.667 10.667 78 32s29.333 50 30 86v284c0 6.66699 3.33301 10 10 10h64c6.66699 0 10 -3.33301 10 -10v-459c0 -6.66699 -3.33301 -10 -10 -10h-64z" />
    <glyph glyph-name="v" unicode="v" horiz-adv-x="477" 
d="M210 0c-6 0 -10 3.33301 -12 10l-172 459c-2 6.66699 0.666992 10 8 10h69c6 0 10.333 -3.33301 13 -10l124 -344h2l121 344c2 6.66699 6 10 12 10h68c7.33301 0 10 -3.33301 8 -10l-171 -459c-2 -6.66699 -6.33301 -10 -13 -10h-57z" />
    <glyph glyph-name="w" unicode="w" horiz-adv-x="745" 
d="M494 0c-6 0 -9.99902 3.33301 -11.999 10l-108 343h-2l-109 -343c-2 -6.66699 -6 -10 -12 -10h-58c-6 -0 -10 3.33301 -12 10l-150 459c-2 6.66699 0.333008 10 7 10h68c6 0 10.333 -3.33301 13 -10l106 -346h2l108 346c2 6.66699 6 10 12 10h52
c6.66699 0 11 -3.33301 13 -10l109 -346h2l103 346c1.33301 6.66699 5.66602 10 12.999 10h68c6.66699 0 9 -3.33301 7 -10l-151 -459c-2 -6.66699 -6 -10 -12 -10h-57z" />
    <glyph glyph-name="x" unicode="x" horiz-adv-x="480" 
d="M371 0c-6 0 -11 3.00098 -15 9.00098l-116 169h-1l-116 -169c-3.33301 -6 -8.33301 -9 -15 -9h-71c-4 0 -6.33301 1 -7 3s-0.666992 4.33301 0 7l163 240l-149 219c-1.33301 2.66699 -1.66602 5 -0.999023 7s3.33398 3 8.00098 3h72c3.33301 0 6 -0.333008 8 -1
s4.33301 -3.33398 7 -8.00098l101 -149h1l103 149c3.33301 6 8 9 14 9h72c4 0 6.33301 -1 7 -3s0.666992 -4.33301 0 -7l-150 -219l164 -240c1.33301 -2.66699 1.66602 -5 0.999023 -7s-3.33398 -3 -8.00098 -3h-72z" />
    <glyph glyph-name="y" unicode="y" horiz-adv-x="477" 
d="M86 -180c-6.66699 0 -10 3.33398 -10 10.001v58c0 6.66699 3.33301 10 10 10h18c19.333 0 35 5 47 15s23.333 29 34 57l16 44l-176 455c-2 6.66699 0.666992 10 8 10h70c6 0 10 -3.33301 12 -10l126 -346h2l121 346c2 6.66699 6 10 12 10h68c7.33301 0 10 -3.33301 8 -10
l-189 -506c-10.667 -28 -21 -51.333 -31 -70s-21 -33.334 -33 -44.001s-25 -18 -39 -22s-30 -6.33301 -48 -7h-26z" />
    <glyph glyph-name="z" unicode="z" horiz-adv-x="477" 
d="M65 0c-6.66699 0 -10 3.33203 -10 9.99902v53c0 4.66699 1.33301 8.33398 4 11.001l263 327v2h-244c-6.66699 0 -10 3.33301 -10 10v56c0 6.66699 3.33301 10 10 10h334c6.66699 0 10 -3.33301 10 -10v-56c0 -4 -1.33301 -7.66699 -4 -11l-261 -324v-2h255
c6.66699 0 10 -3.33301 10 -10v-56c0 -6.66699 -3.33301 -10 -10 -10h-347z" />
    <glyph glyph-name="braceleft" unicode="{" horiz-adv-x="333" 
d="M240 -84c-71.333 0 -107 37.667 -107 113v182c0 28.667 -5 49 -15 61s-25.667 18.667 -47 20c-6.66699 0 -10 3.33301 -10 10v57c0 6.66699 3.33301 10 10 10c20.667 0.666992 36 7 46 19s15.333 32.333 16 61v178c0 75.333 35.667 113 107 113h46
c6.66699 0 10 -3.33301 10 -10v-48c0 -6.66699 -3.33301 -10 -10 -10h-29c-15.333 0 -26.666 -3.66699 -33.999 -11s-11 -20 -11 -38v-173c0 -37.333 -4.66699 -64.333 -14 -81s-25.333 -29.334 -48 -38.001v-1c22 -8 37.667 -20.333 47 -37s14.333 -44 15 -82v-178
c0 -17.333 3.66699 -29.666 11 -36.999s18.666 -11.333 33.999 -12h29c6.66699 0 10 -3.33301 10 -10v-48c0 -6.66699 -3.33301 -10 -10 -10h-46z" />
    <glyph glyph-name="bar" unicode="|" horiz-adv-x="290" 
d="M119 -84c-6.66699 0 -10 3.33301 -10 10v804c0 6.66699 3.33301 10 10 10h52c6.66699 0 10 -3.33301 10 -10v-804c0 -6.66699 -3.33301 -10 -10 -10h-52z" />
    <glyph glyph-name="braceright" unicode="}" horiz-adv-x="333" 
d="M47 -84c-6.66699 0 -10 3.33301 -10 10v48c0 6.66699 3.33301 10 10 10h29c15.333 0 26.666 3.66699 33.999 11s11 20 11 38v178c0 37.333 4.66699 64.333 14 81s25.333 29.334 48 38.001v1c-22 8 -37.667 20.333 -47 37s-14.333 44 -15 82v173
c0 17.333 -3.66699 29.666 -11 36.999s-18.666 11.333 -33.999 12h-29c-6.66699 0 -10 3.33301 -10 10v48c0 6.66699 3.33301 10 10 10h46c71.333 0 107 -37.667 107 -113v-178c0 -28 5 -48 15 -60s25.667 -18.667 47 -20c6.66699 0 10 -3.33301 10 -10v-57
c0 -6.66699 -3.33301 -10 -10 -10c-20.667 -0.666992 -36 -7 -46 -19s-15.333 -32.667 -16 -62v-182c0 -75.333 -35.667 -113 -107 -113h-46z" />
    <glyph glyph-name="asciitilde" unicode="~" 
d="M286 307c11.333 -7.33301 23 -14 35 -20s24 -9 36 -9c17.333 0 31.333 4.66699 42 14s21.667 22.666 33 39.999c3.33301 5.33301 8 6 14 2l38 -22c5.33301 -3.33301 6.66602 -8 3.99902 -14c-13.333 -28 -31.666 -50 -54.999 -66s-49 -24 -77 -24
c-20.667 0 -39 3.66699 -55 11s-31 16 -45 26c-11.333 7.33301 -23 14 -35 20s-24 9 -36 9c-17.333 0 -31.333 -4.66699 -42 -14s-21.667 -22.666 -33 -39.999c-3.33301 -5.33301 -8 -6 -14 -2l-38 22c-5.33301 3.33301 -6.66602 8 -3.99902 14
c13.333 28 31.666 50 54.999 66s49 24 77 24c20.667 0 39 -3.66699 55 -11s31 -16 45 -26z" />
    <glyph glyph-name="uni00A0" unicode="&#xa0;" horiz-adv-x="240" 
 />
    <glyph glyph-name="copyright" unicode="&#xa9;" horiz-adv-x="828" 
d="M414 -11c-49.333 0 -95.334 8.99902 -138.001 26.999s-80 42.667 -112 74s-56.667 68.333 -74 111s-26.333 89 -27 139c0 49.333 9 95.333 27 138s42.667 79.667 74 111s68.333 56.333 111 75s89 27.667 139 27c49.333 0 95.333 -9 138 -27s79.667 -42.667 111 -74
s56.333 -68.666 75 -111.999s27.667 -89.333 27 -138c0 -49.333 -9 -95.333 -27 -138s-42.667 -80 -74 -112s-68.666 -56.667 -111.999 -74s-89.333 -26.333 -138 -27zM413.999 49.999c40.667 0 78.6719 7.33301 114.005 22s65.666 35 90.999 61s45.666 56.667 60.999 92
s22.666 73.666 21.999 114.999c0 41.333 -7.33301 79.666 -22 114.999s-34.667 66 -60 92s-56 46.333 -92 61s-74 22 -114 22c-41.333 0 -79.333 -7.33301 -114 -22s-65 -35 -91 -61s-46.333 -56.667 -61 -92s-22 -73.666 -22 -114.999s7.33301 -79.666 22 -114.999
s34.667 -66 60 -92s55.666 -46.333 90.999 -61s73.666 -22 114.999 -22zM423.004 142.999c-38 0 -69.999 8.66699 -95.999 26s-45 43.666 -57 78.999c-3.33301 10 -6 21.667 -8 35s-3 32.333 -3 57c0 24 1 42.667 3 56s4.66699 25.333 8 36c11.333 34.667 30 60.667 56 78
s58.333 26.333 97 27c30 0 55.667 -5.66699 77 -17s39 -26.666 53 -45.999c4 -5.33301 3.33301 -10 -2 -14l-32 -29c-4.66699 -3.33301 -9.33398 -2.66602 -14.001 2.00098c-10 13.333 -21 23.666 -33 30.999s-28 11 -48 11c-46 0 -76 -20.667 -90 -62
c-2.66699 -7.33301 -4.33398 -16 -5.00098 -26s-1.33398 -25.667 -2.00098 -47c0 -21.333 0.333008 -37 1 -47s2.66699 -18.667 6 -26c14 -41.333 44 -62 90 -62c19.333 0 35 3.66699 47 11s23.333 17.666 34 30.999c4.66699 4.66699 9.33398 5.33398 14.001 2.00098l32 -29
c5.33301 -4 6 -8.66699 2 -14c-13.333 -18.667 -30.666 -33.667 -51.999 -45s-47.333 -17.333 -78 -18z" />
    <glyph glyph-name="registered" unicode="&#xae;" horiz-adv-x="452" 
d="M226 301c-27.333 0 -52.335 4.66602 -75.002 13.999s-43 23 -61 41s-31.333 38.333 -40 61s-13.667 48 -15 76c0 26.667 4.66699 51.667 14 75s23 43.666 41 60.999s38 30.666 60 39.999s47.333 14.333 76 15c27.333 0 52.666 -4.66699 75.999 -14s43.333 -23 60 -41
s30 -38.333 40 -61s15 -47.667 15 -75s-4.66699 -52.666 -14 -75.999s-22.666 -43.666 -39.999 -60.999s-37.666 -30.666 -60.999 -39.999s-48.666 -14.333 -75.999 -15zM225.998 333.999c22.667 0 43.334 4 62.001 12s35.334 19 50.001 33s25.667 31 33 51s11.333 41 12 63
c0 22.667 -4 43.667 -12 63s-19 36 -33 50s-30.333 25 -49 33s-39.667 12 -63 12c-22.667 0 -43.334 -4 -62.001 -12s-35.334 -19 -50.001 -33s-25.667 -30.667 -33 -50s-11.333 -40.333 -12 -63c0 -22.667 4 -43.667 12 -63s19 -36 33 -50s30.333 -25.333 49 -34
s39.667 -12.667 63 -12zM158.998 387.999c-4.66699 0 -7.00098 2.33398 -7.00098 7.00098v198c0 4.66699 2.33301 7 7 7h80c23.333 0 41.333 -5.33301 54 -16s19 -26.334 19 -47.001c0 -14.667 -3.66699 -27 -11 -37s-17.666 -17.333 -30.999 -22l43 -83
c2 -4.66699 0.666992 -7 -4 -7h-28c-4 0 -7 2.33301 -9 7l-40 78h-38c-2.66699 0 -4 -1.33301 -4 -4v-74c0 -4.66699 -2.33301 -7 -7 -7h-24zM238.997 507c23.333 0 35 10 35 30c0 19.333 -11.667 29 -35 29h-45c-2.66699 0 -4 -1.33301 -4 -4v-51
c0 -2.66699 1.33301 -4 4 -4h45z" />
    <glyph glyph-name="degree" unicode="&#xb0;" horiz-adv-x="456" 
d="M228 397c-21.333 0 -40.668 3.66699 -58.001 11s-32.666 17.333 -45.999 30s-23.666 28.334 -30.999 47.001s-11 38 -11 58c0 20.667 3.66699 40 11 58s17.333 33.333 30 46s28 23 46 31s37.667 11.667 59 11c20.667 0 40 -3.66699 58 -11s33.333 -17.333 46 -30
s23 -28.334 31 -47.001s11.667 -38 11 -58c0 -20.667 -3.66699 -40 -11 -58s-17.333 -33.333 -30 -46s-28.334 -23 -47.001 -31s-38 -11.667 -58 -11zM227.998 449c26.667 0 48.334 8.66699 65.001 26s25.334 40 26.001 68c0 27.333 -8.33301 49.666 -25 66.999
s-38.667 26.333 -66 27c-26.667 0 -48.334 -8.66699 -65.001 -26s-25.334 -40 -26.001 -68c0 -27.333 8.33301 -49.666 25 -66.999s38.667 -26.333 66 -27z" />
    <glyph glyph-name="plusminus" unicode="&#xb1;" 
d="M243 134c-6.66699 0 -10 3.33301 -10 10v158c0 4 -2 6 -6 6h-156c-6.66699 0 -10 3.33301 -10 10v54c0 6.66699 3.33301 10 10 10h156c4 0 6 2 6 6v158c0 6.66699 3.33301 10 10 10h56c6.66699 0 10 -3.33301 10 -10v-158c0 -4 2 -6 6 -6h156
c6.66699 0 10 -3.33301 10 -10v-54c0 -6.66699 -3.33301 -10 -10 -10h-156c-4 0 -6 -2 -6 -6v-158c0 -6.66699 -3.33301 -10 -10 -10h-56zM71 0c-6.66699 0 -10 3.33301 -10 10v54c0 6.66699 3.33301 10 10 10h400c6.66699 0 10 -3.33301 10 -10v-54
c0 -6.66699 -3.33301 -10 -10 -10h-400z" />
    <glyph glyph-name="acute" unicode="&#xb4;" horiz-adv-x="421" 
d="M135 557c-7.33301 0 -9.33496 3.33301 -6.00195 10l76 123c4 6.66699 9.66699 10 17 10h66c3.33301 0 5.33301 -1 6 -3s0.333984 -4.33301 -0.999023 -7l-92 -123c-5.33301 -6.66699 -11.666 -10 -18.999 -10h-47z" />
    <glyph glyph-name="multiply" unicode="&#xd7;" 
d="M412 97c-4.66699 -4.66699 -9.33301 -4.66797 -14 -0.000976562l-123 121c-2.66699 2.66699 -5.33398 2.66699 -8.00098 0l-122 -121c-4.66699 -4.66699 -9.33398 -4.66699 -14.001 0l-38 39c-4.66699 4.66699 -4.66699 9.33398 0 14.001l122 122
c2.66699 2.66699 2.66699 5.33398 0 8.00098l-122 122c-4.66699 4.66699 -4.66699 9.33398 0 14.001l38 39c4.66699 4.66699 9.33398 4.66699 14.001 0l122 -121c2.66699 -3.33301 5.66699 -3.33301 9 0l122 121c4.66699 4.66699 9.33398 4.66699 14.001 0l37 -39
c4.66699 -4.66699 4.66699 -9.33398 0 -14.001l-122 -121c-3.33301 -3.33301 -3.33301 -6.33301 0 -9l122 -122c4.66699 -4.66699 4.66699 -9.33398 0 -14.001z" />
    <glyph glyph-name="divide" unicode="&#xf7;" 
d="M215 438c0 15.333 5.33301 28.333 16 39s24 16.334 40 17.001c15.333 0 28.333 -5.33301 39 -16s16.334 -24 17.001 -40c0 -15.333 -5.33301 -28.333 -16 -39s-24 -16.334 -40 -17.001c-15.333 0 -28.333 5.33301 -39 16s-16.334 24 -17.001 40zM71 239
c-6.66699 0 -10 3.33301 -10 10v54c0 6.66699 3.33301 10 10 10h400c6.66699 0 10 -3.33301 10 -10v-54c0 -6.66699 -3.33301 -10 -10 -10h-400zM215 114c0 15.333 5.33301 28.333 16 39s24 16.334 40 17.001c15.333 0 28.333 -5.33301 39 -16s16.334 -24 17.001 -40
c0 -15.333 -5.33301 -28.333 -16 -39s-24 -16.334 -40 -17.001c-15.333 0 -28.333 5.33301 -39 16s-16.334 24 -17.001 40z" />
    <glyph glyph-name="endash" unicode="&#x2013;" horiz-adv-x="512" 
d="M34 229c-6.66699 0 -10 3.33301 -10 10v54c0 6.66699 3.33301 10 10 10h444c6.66699 0 10 -3.33301 10 -10v-54c0 -6.66699 -3.33301 -10 -10 -10h-444z" />
    <glyph glyph-name="emdash" unicode="&#x2014;" horiz-adv-x="850" 
d="M34 229c-6.66699 0 -10 3.33301 -10 10v54c0 6.66699 3.33301 10 10 10h782c6.66699 0 10 -3.33301 10 -10v-54c0 -6.66699 -3.33301 -10 -10 -10h-782z" />
    <glyph glyph-name="quoteleft" unicode="&#x2018;" horiz-adv-x="215" 
d="M77 503c-6.66699 0 -10 3.33301 -10 10v83c0 5.33301 0.333008 9.33301 1 12s2.66699 5.66699 6 9l52 57c4 5.33301 8.33301 8 13 8c6 0 9 -3.33301 9 -10v-159c0 -6.66699 -3.33301 -10 -10 -10h-61z" />
    <glyph glyph-name="quoteright" unicode="&#x2019;" horiz-adv-x="215" 
d="M76 501c-6 0 -8.99902 3.33301 -8.99902 10v159c0 6.66699 3.33301 10 10 10h61c6.66699 0 10 -3.33301 10 -10v-83c0 -5.33301 -0.333008 -9.33301 -1 -12s-2.33398 -5.66699 -5.00098 -9l-52 -57c-4 -5.33301 -8.66699 -8 -14 -8z" />
    <glyph glyph-name="quotedblleft" unicode="&#x201c;" horiz-adv-x="372" 
d="M234 503c-6.66699 0 -10.001 3.33301 -10.001 10v83c0 5.33301 0.333008 9.33301 1 12s2.33398 5.66699 5.00098 9l52 57c4 5.33301 8.66699 8 14 8c6 0 9 -3.33301 9 -10v-159c0 -6.66699 -3.33301 -10 -10 -10h-61zM76.999 503c-6.66699 0 -10 3.33301 -10 10v83
c0 5.33301 0.333008 9.33301 1 12s2.66699 5.66699 6 9l52 57c4 5.33301 8.33301 8 13 8c6 0 9 -3.33301 9 -10v-159c0 -6.66699 -3.33301 -10 -10 -10h-61z" />
    <glyph glyph-name="quotedblright" unicode="&#x201d;" horiz-adv-x="372" 
d="M233 501c-6 0 -9 3.33301 -9 10v159c0 6.66699 3.33301 10 10 10h61c6.66699 0 10 -3.33301 10 -10v-83c0 -5.33301 -0.333008 -9.33301 -1 -12s-2.66699 -5.66699 -6 -9l-52 -57c-4 -5.33301 -8.33301 -8 -13 -8zM76 501c-6 0 -9 3.33301 -9 10v159
c0 6.66699 3.33301 10 10 10h61c6.66699 0 10 -3.33301 10 -10v-83c0 -9.33301 -2 -16.333 -6 -21l-52 -57c-3.33301 -5.33301 -8 -8 -14 -8z" />
    <glyph glyph-name="bullet" unicode="&#x2022;" horiz-adv-x="442" 
d="M221 180c-37.333 0 -67.666 11.666 -90.999 34.999s-35.333 54.333 -36 93c0 38 11.667 68.667 35 92s54 35.333 92 36c18 0 34.667 -3 50 -9s29 -15 41 -27s20.667 -25.333 26 -40s8.66602 -32 9.99902 -52c0 -18.667 -3 -35.667 -9 -51s-15 -29 -27 -41
s-25.333 -20.667 -40 -26s-31.667 -8.66602 -51 -9.99902z" />
    <glyph glyph-name="ellipsis" unicode="&#x2026;" horiz-adv-x="708" 
d="M552 0c-6.66699 0 -10 3.33301 -10 10v86c0 6.66699 3.33301 10 10 10h76c6.66699 0 10 -3.33301 10 -10v-86c0 -6.66699 -3.33301 -10 -10 -10h-76zM316 0c-6.66699 0 -10 3.33301 -10 10v86c0 6.66699 3.33301 10 10 10h76c6.66699 0 10 -3.33301 10 -10v-86
c0 -6.66699 -3.33301 -10 -10 -10h-76zM80 0c-6.66699 0 -10 3.33301 -10 10v86c0 6.66699 3.33301 10 10 10h76c6.66699 0 10 -3.33301 10 -10v-86c0 -6.66699 -3.33301 -10 -10 -10h-76z" />
    <glyph glyph-name="trademark" unicode="&#x2122;" horiz-adv-x="833" 
d="M730 286c-6.66699 0 -10.001 3.33301 -10.001 10v241h-2l-89 -185c-3.33301 -6.66699 -7.66602 -10 -12.999 -10h-33c-4.66699 0 -8.66699 3.33301 -12 10l-89 185h-2v-241c0 -6.66699 -3.33301 -10 -10 -10h-41c-6.66699 0 -10 3.33301 -10 10v374
c0 6.66699 3.33301 10 10 10h39c5.33301 0 9.66602 -3 12.999 -9l118 -252h3l116 252c2.66699 6 7.33398 9 14.001 9h39c6.66699 0 10 -3.33301 10 -10v-374c0 -6.66699 -3.33301 -10 -10 -10h-41zM171.999 286c-6.66699 0 -10 3.33301 -10 10v320c0 4 -2 6 -6 6h-105
c-6.66699 0 -10 3.33301 -10 10v38c0 6.66699 3.33301 10 10 10h287c6.66699 0 10 -3.33301 10 -10v-38c0 -6.66699 -3.33301 -10 -10 -10h-105c-4 0 -6 -2 -6 -6v-320c0 -6.66699 -3.33301 -10 -10 -10h-45z" />
    <glyph glyph-name="minus" unicode="&#x2212;" 
d="M71 239c-6.66699 0 -10 3.33301 -10 10v54c0 6.66699 3.33301 10 10 10h400c6.66699 0 10 -3.33301 10 -10v-54c0 -6.66699 -3.33301 -10 -10 -10h-400z" />
    <glyph glyph-name=".null" horiz-adv-x="0" 
 />
    <glyph glyph-name="nonmarkingreturn" horiz-adv-x="333" 
 />
  </font>
</defs>
</svg>
